<svg width="661" height="661" viewBox="0 0 661 661" fill="none" xmlns="http://www.w3.org/2000/svg">
<circle cx="330.5" cy="330.244" r="330" fill="#FBCE51"/>
<g style="mix-blend-mode:overlay">
<path d="M541.44 566.765L540.849 566.076L542.03 564.699L535.832 557.713L536.225 560.468L536.52 568.929L536.815 569.323L538.193 568.437L538.783 569.126L534.946 572.57L534.356 571.881L535.34 570.7L527.666 561.944L526.386 562.829L525.796 562.141L529.732 558.697L530.322 559.386L529.24 560.566L535.536 567.65L535.143 565.092L534.848 556.434L534.356 555.942L532.88 556.926L532.29 556.237L536.225 552.794L536.815 553.483L535.733 554.663L543.407 563.42L544.686 562.633L545.277 563.321L541.44 566.765Z" fill="black"/>
<path d="M531.798 574.733C531.404 575.225 531.109 575.52 530.814 575.816C530.519 576.111 530.224 576.406 529.928 576.603C528.748 577.587 527.666 578.177 526.682 578.275C525.698 578.374 524.911 578.078 524.222 577.193C523.632 576.406 523.337 575.619 523.435 574.733C523.533 573.848 523.927 573.061 524.517 572.372C523.632 573.061 522.746 573.356 521.861 573.356C520.975 573.258 520.287 572.864 519.696 572.175C518.811 571.093 518.516 570.109 518.712 569.027C518.909 567.945 519.696 566.862 521.074 565.682C521.664 565.19 522.254 564.796 522.746 564.6C523.238 564.304 523.73 564.108 524.025 564.009C524.32 563.911 524.517 563.812 524.616 563.812L526.387 566.567L525.698 567.158L523.73 565.583C523.041 565.682 522.353 566.075 521.467 566.764C520.779 567.256 520.483 567.846 520.483 568.535C520.483 569.224 520.779 569.912 521.369 570.7C521.861 571.29 522.451 571.683 523.14 571.782C523.829 571.88 524.616 571.585 525.501 570.896L526.485 570.109L527.174 570.896L526.288 571.585C525.895 571.88 525.599 572.274 525.304 572.766C525.108 573.258 525.009 573.749 525.009 574.241C525.108 574.733 525.304 575.324 525.698 575.816C526.19 576.504 526.78 576.799 527.37 576.799C527.961 576.799 528.551 576.504 529.24 576.012C529.633 575.619 530.027 575.324 530.224 574.93C530.42 574.537 530.519 574.241 530.519 574.045L529.732 572.47L530.617 571.683L532.585 573.848C532.487 573.946 532.191 574.241 531.798 574.733Z" fill="black"/>
<path d="M518.516 583.982L519.893 583.293L520.483 584.08L518.417 585.556C518.122 585.851 517.63 586.146 517.138 586.54C516.646 586.933 516.351 587.229 516.154 587.425C514.777 588.409 513.596 588.901 512.711 588.901C511.825 588.901 511.038 588.508 510.448 587.622C509.956 586.933 509.661 586.146 509.759 585.359C509.759 584.572 510.153 583.785 510.743 583.195C509.759 583.883 508.874 584.277 507.988 584.179C507.103 584.08 506.316 583.687 505.725 582.801C504.938 581.817 504.742 580.735 505.037 579.555C505.332 578.374 506.217 577.193 507.89 576.013C508.283 575.717 508.579 575.521 508.972 575.324C509.759 574.832 510.251 574.438 510.448 574.34L512.416 572.864L512.908 573.651L511.727 574.734L518.516 583.982ZM508.382 576.701C507.398 577.488 506.808 578.177 506.611 578.964C506.414 579.751 506.709 580.44 507.201 581.227C507.792 582.014 508.382 582.408 509.071 582.506C509.759 582.605 510.546 582.309 511.432 581.621C512.416 580.834 513.104 580.44 513.4 580.145L510.153 575.619C509.759 575.718 509.267 576.111 508.382 576.701ZM513.104 581.719L512.317 582.309C511.629 582.801 511.235 583.392 511.137 584.08C511.038 584.769 511.235 585.458 511.825 586.146C512.317 586.835 512.908 587.229 513.498 587.327C514.088 587.425 514.875 587.13 515.761 586.442C516.154 586.146 516.45 585.851 516.843 585.556L517.138 585.261L514.088 581.03C513.891 581.227 513.596 581.424 513.104 581.719Z" fill="black"/>
<path d="M505.922 594.312L504.25 595.493L493.329 587.229L492.247 587.721L491.755 586.933L495.887 584.179L496.379 584.966L495.198 585.95L497.461 587.819L501.987 584.769L501.2 582.014L499.724 582.703L499.232 581.916L502.971 579.456L503.463 580.243L502.577 581.03L505.922 594.312ZM503.364 592.443L504.643 593.525L504.053 591.853L502.282 585.851L498.346 588.508L503.364 592.443Z" fill="black"/>
<path d="M489.393 589.098C490.574 589.098 491.558 589.393 492.542 590.082C493.526 590.77 494.411 591.656 495.1 592.935C495.788 594.115 496.182 595.296 496.28 596.575C496.379 597.854 496.084 598.936 495.493 599.92C494.903 600.904 494.116 601.789 493.034 602.478C492.247 602.97 491.164 603.462 489.885 603.856L489.295 604.052L487.721 601.101L488.803 600.412L490.476 602.183C490.672 602.183 491.066 602.183 491.459 602.085C491.853 601.986 492.345 601.691 492.935 601.396C493.624 601.002 494.116 600.412 494.411 599.723C494.706 599.035 494.805 598.149 494.608 597.264C494.411 596.378 494.018 595.296 493.427 594.312C492.837 593.328 492.148 592.443 491.361 591.853C490.574 591.262 489.787 590.77 489 590.672C488.213 590.573 487.327 590.672 486.54 591.164C485.95 591.459 485.556 591.852 485.36 592.049C485.163 592.246 484.966 592.64 484.868 592.935L485.163 594.902L484.081 595.394L483.097 592.935C483.293 592.836 483.589 592.541 483.982 592.148C484.277 591.754 484.572 591.459 484.966 591.164C485.261 590.869 485.753 590.573 486.245 590.278C487.131 589.491 488.213 589.098 489.393 589.098Z" fill="black"/>
<path d="M479.555 606.808C479.456 607.89 479.161 608.972 478.669 609.759C478.079 610.645 477.39 611.333 476.505 611.727C475.423 612.317 474.34 612.514 473.356 612.416C472.373 612.317 471.389 611.924 470.503 611.235C469.618 610.546 468.831 609.661 468.24 608.382C467.552 607.005 467.158 605.726 467.06 604.545C466.961 603.266 467.257 602.184 467.748 601.2C468.24 600.216 469.027 599.527 470.011 598.937C471.094 598.347 472.176 598.051 473.258 598.15C474.34 598.248 475.226 598.642 476.111 599.232C476.997 599.921 477.784 600.806 478.374 602.085L481.031 600.708L478.473 595.887L476.997 596.477L476.603 595.69L481.129 593.23L481.523 594.018L480.244 594.903L485.753 605.135L487.131 604.643L487.524 605.43L483.097 607.792L482.703 607.005L483.982 606.119L481.621 601.692L478.964 603.167C479.358 604.545 479.555 605.725 479.555 606.808ZM477.784 608.185C477.882 606.906 477.489 605.43 476.505 603.561C475.619 601.987 474.636 600.806 473.553 600.216C472.471 599.626 471.389 599.527 470.208 600.117C469.126 600.708 468.634 601.593 468.536 602.774C468.437 603.955 468.929 605.529 469.913 607.398C470.798 608.972 471.684 610.153 472.766 610.743C473.848 611.432 474.931 611.432 475.914 610.842C477.095 610.35 477.685 609.464 477.784 608.185Z" fill="black"/>
<path d="M458.795 611.53C458.107 611.137 457.123 610.645 456.04 609.956C455.253 609.464 454.761 609.07 454.368 608.874C453.974 608.677 453.679 608.579 453.482 608.579L452.794 608.677L452.4 607.89L454.466 606.906C454.761 606.808 455.155 606.906 455.647 607.201C456.139 607.496 456.926 607.988 457.811 608.677C458.894 609.464 459.681 609.956 460.369 610.349C460.96 610.743 461.452 610.841 461.845 610.645L462.927 610.153L460.665 605.332L459.09 605.824L458.697 605.037L463.321 602.872L463.715 603.758L462.435 604.545L467.355 615.072L468.831 614.678L469.224 615.564L464.698 617.63L464.305 616.548L465.584 615.662L463.321 610.743L461.845 611.432L460.665 617.925L462.14 617.433L462.534 618.319L458.402 620.286L458.008 619.401L459.287 618.614L460.665 611.924C460.173 612.022 459.484 611.825 458.795 611.53Z" fill="black"/>
<path d="M449.645 609.66C450.728 609.857 451.613 610.349 452.4 611.235C453.187 612.022 453.876 613.104 454.466 614.383C455.057 615.662 455.253 616.941 455.155 618.22C455.057 619.401 454.663 620.483 454.073 621.368C453.384 622.254 452.597 622.942 451.416 623.434C449.645 624.222 447.973 624.222 446.595 623.434C445.218 622.647 444.037 621.368 443.25 619.302C442.66 617.925 442.463 616.646 442.562 615.465C442.66 614.186 443.054 613.202 443.644 612.218C444.333 611.333 445.218 610.644 446.3 610.152C447.481 609.66 448.563 609.464 449.645 609.66ZM453.187 619.893C453.384 618.614 453.187 617.138 452.4 615.17C451.712 613.399 450.826 612.218 449.744 611.431C448.662 610.644 447.579 610.546 446.497 611.038C445.415 611.53 444.726 612.317 444.529 613.596C444.333 614.875 444.529 616.449 445.316 618.318C446.005 620.089 446.891 621.27 447.973 621.959C448.957 622.647 450.039 622.844 451.22 622.352C452.302 622.057 452.991 621.172 453.187 619.893Z" fill="black"/>
<path d="M442.168 625.697L443.644 625.402L443.939 626.288L441.578 627.173C441.184 627.271 440.692 627.567 440.102 627.763C439.512 628.058 439.118 628.157 438.921 628.255C437.347 628.846 436.068 629.042 435.183 628.747C434.297 628.452 433.707 627.862 433.313 626.878C433.018 626.091 433.018 625.205 433.215 624.517C433.412 623.828 434.002 623.139 434.789 622.647C433.707 623.041 432.723 623.139 431.838 622.844C430.952 622.549 430.362 621.86 430.067 620.975C429.673 619.794 429.673 618.712 430.263 617.63C430.854 616.547 432.034 615.662 434.002 614.973C434.396 614.776 434.789 614.678 435.281 614.58C436.167 614.284 436.757 614.088 436.954 614.088L439.315 613.202L439.61 614.088L438.233 614.776L442.168 625.697ZM434.396 615.957C433.215 616.351 432.428 616.941 432.133 617.63C431.739 618.318 431.739 619.105 432.133 619.991C432.428 620.876 432.92 621.467 433.51 621.663C434.1 621.86 434.986 621.86 435.97 621.467C437.15 621.073 437.938 620.778 438.233 620.581L436.363 615.367C435.97 615.367 435.379 615.563 434.396 615.957ZM437.642 622.057L436.659 622.45C435.871 622.746 435.281 623.238 435.084 623.828C434.888 624.418 434.888 625.205 435.183 625.992C435.478 626.779 435.871 627.37 436.462 627.567C437.052 627.763 437.839 627.763 438.823 627.37C439.216 627.173 439.708 627.075 440.102 626.779L440.496 626.583L438.725 621.663C438.429 621.762 438.134 621.86 437.642 622.057Z" fill="black"/>
<path d="M414.522 635.93L414.226 635.044L415.702 634.356L412.357 623.238L410.586 623.533L410.291 622.648L415.309 621.172L415.604 622.057L414.128 622.648L417.473 633.864L423.18 632.191L419.834 620.975L418.162 621.27L417.867 620.385L422.884 618.909L423.18 619.795L421.802 620.385L425.147 631.503L426.721 631.306L427.017 632.191L414.522 635.93Z" fill="black"/>
<path d="M406.847 624.321C407.831 624.714 408.717 625.304 409.405 626.288C410.094 627.174 410.586 628.354 410.98 629.732C411.275 631.109 411.373 632.388 411.078 633.569C410.783 634.749 410.291 635.733 409.504 636.52C408.717 637.307 407.733 637.898 406.651 638.193C404.781 638.685 403.207 638.39 401.928 637.504C400.649 636.52 399.764 635.045 399.173 632.88C398.78 631.503 398.78 630.125 399.075 628.945C399.37 627.764 399.862 626.682 400.649 625.895C401.436 625.108 402.42 624.517 403.601 624.222C404.781 623.927 405.864 623.927 406.847 624.321ZM408.914 634.946C409.307 633.766 409.307 632.191 408.815 630.224C408.323 628.453 407.634 627.075 406.749 626.19C405.864 625.304 404.781 625.009 403.601 625.304C402.42 625.6 401.633 626.387 401.239 627.567C400.846 628.748 400.846 630.42 401.338 632.388C401.83 634.257 402.42 635.537 403.404 636.422C404.289 637.307 405.372 637.603 406.552 637.307C407.634 636.816 408.422 636.127 408.914 634.946Z" fill="black"/>
<path d="M392.877 632.092C392.778 630.321 392.877 629.042 393.27 628.059C393.467 627.567 393.664 627.173 393.959 626.878C394.254 626.583 394.648 626.386 395.041 626.288C395.631 626.189 396.025 626.091 396.32 626.091L396.714 627.567C396.418 627.567 395.927 627.665 395.336 627.763C395.14 627.763 394.943 627.862 394.746 628.059C394.549 628.255 394.451 628.452 394.352 628.649C393.664 630.321 393.86 633.371 394.746 637.799L395.041 639.275L397.206 639.078L397.402 639.963L386.777 642.128L386.58 641.242L388.252 640.652L385.99 629.239L384.12 629.436L383.923 628.55L389.531 627.468L389.728 628.354L387.859 628.944L390.122 640.357L393.86 639.57L393.565 637.897C393.27 635.733 392.975 633.765 392.877 632.092Z" fill="black"/>
<path d="M383.136 641.636H384.711L384.809 642.522L375.364 643.998L374.675 641.144L375.757 640.948L376.545 642.62L381.169 642.03L380.382 636.815L377.332 637.307V638.882L376.348 639.078L375.659 634.848L376.643 634.651L377.135 636.225L380.185 635.832L379.299 630.322L374.085 631.306L373.495 633.766L372.314 633.569V630.224L382.546 628.649L382.645 629.535L381.169 629.928L383.136 641.636Z" fill="black"/>
<path d="M367.788 643.998L370.937 643.506L371.133 639.57L372.314 639.472L372.609 644.49L361 645.769L360.213 640.849L361.393 640.751L362.475 644.588L365.722 644.293L364.345 632.585L361.688 632.683L361.59 631.798L368.674 631.011L368.772 631.896L366.411 632.388L367.788 643.998Z" fill="black"/>
<path d="M352.538 638.586L353.424 638.488C353.719 638.291 354.014 637.799 354.211 637.209C354.408 636.618 354.801 635.831 355.096 634.946C355.392 634.06 355.687 633.372 355.884 632.88C356.08 632.388 356.277 632.191 356.474 632.191L359.032 631.994L359.13 632.88L358.442 633.175C358.245 633.273 358.048 633.372 357.851 633.765C357.654 634.06 357.359 634.651 357.064 635.339C356.671 636.225 356.375 636.913 356.08 637.405C355.785 637.996 355.49 638.291 355.096 638.586C355.982 638.783 356.671 639.176 357.163 639.767C357.654 640.357 357.95 641.144 358.048 642.128C358.146 643.604 357.753 644.686 356.966 645.276C356.08 645.867 354.9 646.26 353.227 646.358C352.834 646.358 352.44 646.358 351.85 646.358C351.259 646.358 350.767 646.358 350.472 646.358L347.816 646.555L347.717 645.67L349.292 645.375L348.505 633.765L346.734 633.667L346.635 632.781L352.145 632.388L352.243 633.273L350.472 633.568L350.866 638.488L352.538 638.586ZM351.751 645.473C352.342 645.473 352.834 645.473 353.227 645.473C354.211 645.375 354.9 645.178 355.392 644.686C355.884 644.194 356.08 643.505 355.982 642.423C355.884 641.439 355.588 640.652 354.998 640.16C354.408 639.668 353.719 639.471 352.735 639.471C351.751 639.57 351.063 639.57 350.767 639.668L351.161 645.375L351.751 645.473Z" fill="black"/>
<path d="M340.929 645.965L344.176 645.768L344.667 641.833H345.946L345.75 646.85L334.14 647.145L333.747 642.128H334.927L335.616 646.063H338.863L338.469 634.257L335.813 634.158V633.273L342.995 633.076V633.962L340.535 634.257L340.929 645.965Z" fill="black"/>
<path d="M325.285 633.962C326.269 634.553 326.958 635.438 327.45 636.52C327.942 637.603 328.139 638.882 328.139 640.357C328.139 641.735 327.745 643.014 327.155 643.998C326.564 645.08 325.679 645.867 324.695 646.457C323.613 647.048 322.531 647.244 321.252 647.244C320.268 647.244 319.185 647.048 317.808 646.753L317.218 646.654L317.513 643.309H318.792L319.185 645.67C319.382 645.867 319.677 645.965 320.071 646.064C320.465 646.162 321.055 646.261 321.645 646.261C322.432 646.261 323.121 646.064 323.81 645.67C324.4 645.277 324.99 644.588 325.285 643.703C325.679 642.817 325.876 641.735 325.876 640.554C325.876 639.374 325.777 638.291 325.482 637.307C325.187 636.324 324.695 635.537 324.105 634.946C323.514 634.356 322.727 634.061 321.744 634.061C321.055 634.061 320.563 634.061 320.169 634.159C319.776 634.258 319.481 634.454 319.284 634.651L318.497 636.422L317.316 636.225L317.808 633.569C318.103 633.569 318.497 633.47 318.989 633.372C319.481 633.274 319.874 633.175 320.268 633.077C320.661 632.978 321.252 632.979 321.842 632.979C323.121 632.979 324.302 633.274 325.285 633.962Z" fill="black"/>
<path d="M309.544 646.457L309.642 645.571L311.511 645.473L312.2 636.126L310.527 638.291L304.723 644.489V644.981L306.395 645.276L306.297 646.162L301.181 645.768L301.279 644.883L302.755 644.784L303.542 633.175L301.968 632.88L302.066 631.994L307.281 632.388L307.182 633.273L305.51 633.372L304.821 642.817L306.395 640.75L312.397 634.454V633.765L310.626 633.47L310.724 632.584L315.939 632.978L315.84 633.863L314.266 633.962L313.479 645.571L314.955 645.867L314.856 646.752L309.544 646.457Z" fill="black"/>
<path d="M289.276 644.588L289.67 639.669L290.949 639.767L291.047 643.604L295.081 644.194L296.458 632.487L293.211 631.896L293.31 631.011L300.59 631.798L300.492 632.683H298.426L297.147 644.194L299.115 644.686L299.016 645.572L289.276 644.588Z" fill="black"/>
<path d="M286.226 643.014L287.604 643.506L287.505 644.391L282.488 643.604L282.586 642.719H284.16L284.947 637.799L278.454 636.815L277.667 641.735L279.142 642.227L279.044 643.112L274.125 642.325L274.223 641.44H275.699L277.47 629.928L275.994 629.535L276.092 628.649L281.012 629.436L280.913 630.322L279.339 630.224L278.454 635.635L284.947 636.619L285.833 631.207L284.259 630.814L284.357 629.928L289.473 630.716L289.375 631.601L287.899 631.503L286.226 643.014Z" fill="black"/>
<path d="M267.336 640.947L265.368 640.554L263.499 626.976L262.417 626.583L262.614 625.697L267.434 626.681L267.238 627.567L265.663 627.468L265.959 630.321L271.271 631.404L272.649 628.846L271.075 628.354L271.271 627.468L275.601 628.354L275.404 629.239L274.223 629.141L267.336 640.947ZM266.746 637.799L266.844 639.471L267.631 637.897L270.681 632.388L266.057 631.404L266.746 637.799Z" fill="black"/>
<path d="M256.71 629.534C257.399 627.96 258.088 626.779 258.776 625.992C259.17 625.599 259.465 625.402 259.859 625.205C260.252 625.107 260.646 625.107 261.138 625.205C261.728 625.304 262.122 625.5 262.417 625.599L262.22 627.075C261.925 626.976 261.531 626.878 260.843 626.681C260.646 626.583 260.449 626.583 260.252 626.681C260.055 626.779 259.859 626.878 259.662 627.075C258.383 628.255 257.202 631.108 256.022 635.536L255.628 637.012L257.694 637.799L257.497 638.684L247.068 636.028L247.265 635.142L249.036 635.339L251.889 624.025L250.118 623.434L250.315 622.549L255.923 623.926L255.726 624.812L253.857 624.517L251.004 635.733L254.644 636.618L255.038 634.946C255.431 632.978 256.022 631.108 256.71 629.534Z" fill="black"/>
<path d="M227.883 630.322L228.178 629.437L229.949 629.732L233.393 618.614L231.819 617.926L232.114 617.04L237.328 618.713L237.033 619.598L235.36 619.303L231.917 630.421L233.491 631.109L233.196 631.995L227.883 630.322ZM240.673 628.551C239.198 628.059 238.214 627.371 237.623 626.485C237.033 625.6 236.935 624.517 237.328 623.238C237.722 621.861 238.509 620.975 239.591 620.484C240.673 619.992 241.952 619.992 243.428 620.385C243.625 620.484 243.822 620.484 244.018 620.582C244.215 620.68 244.412 620.779 244.609 620.779C245.298 621.074 245.888 621.271 246.38 621.467L248.839 622.254L248.544 623.14L246.97 622.845L243.527 633.962L244.904 634.651L244.609 635.537L239.493 633.962L239.788 633.077L241.657 633.372L242.936 629.24L240.673 628.551ZM244.412 621.861C244.215 621.763 243.92 621.664 243.428 621.566C242.444 621.271 241.559 621.271 240.87 621.664C240.181 622.058 239.689 622.746 239.296 623.829C239.001 624.813 239.001 625.6 239.394 626.288C239.788 626.977 240.477 627.469 241.46 627.764L243.33 628.354L245.199 622.353C244.904 622.058 244.707 621.959 244.412 621.861Z" fill="black"/>
<path d="M220.111 626.19L221.39 626.977L221.095 627.862L216.372 625.993L216.667 625.108L218.241 625.501L220.111 620.779L214.011 618.417L212.141 623.14L213.42 623.927L213.125 624.812L208.501 622.943L208.796 622.058L210.272 622.353L214.503 611.53L213.224 610.842L213.519 609.956L218.241 611.825L217.946 612.711L216.47 612.317L214.503 617.335L220.603 619.696L222.57 614.679L221.095 613.891L221.39 613.006L226.211 614.875L225.915 615.761L224.44 615.367L220.111 626.19Z" fill="black"/>
<path d="M202.106 620.188L200.237 619.303L201.319 605.627L200.335 604.938L200.729 604.151L205.254 606.119L204.861 607.005L203.385 606.513L203.09 609.366L208.108 611.629L210.075 609.464L208.698 608.677L209.091 607.89L213.125 609.661L212.732 610.448L211.551 610.153L202.106 620.188ZM202.303 617.04L202.106 618.712L203.188 617.335L207.32 612.613L202.991 610.645L202.303 617.04Z" fill="black"/>
<path d="M188.529 612.415L190.201 613.596L189.808 614.383L185.38 612.022L186.955 603.363L187.545 601.002L185.971 602.872L179.772 609.07L175.443 606.807L175.837 606.02L177.805 606.807L181.937 595.886L180.559 594.902L180.953 594.115L185.676 596.673L185.282 597.46L183.708 596.87L180.559 604.643L179.182 607.988L181.15 606.02L188.529 598.838L189.611 599.428L188.135 608.775L187.446 612.415L189.414 609.365L194.038 602.281L192.464 601.297L192.858 600.51L197.187 602.773L196.793 603.56L195.317 602.97L188.529 612.415Z" fill="black"/>
<path d="M169.147 603.167L167.376 602.085L170.131 588.704L169.245 587.917L169.737 587.13L173.968 589.688L173.476 590.475L172 589.885L171.311 592.738L176.034 595.493L178.198 593.525L176.919 592.541L177.411 591.754L181.248 594.017L180.756 594.804L179.674 594.41L169.147 603.167ZM169.737 600.018L169.343 601.691L170.622 600.51L175.345 596.28L171.213 593.82L169.737 600.018Z" fill="black"/>
<path d="M160.981 596.674L162.063 597.658L161.571 598.445L159.505 597.067C159.111 596.871 158.718 596.575 158.324 596.379C157.734 596.083 157.144 595.69 156.652 595.395C155.176 594.411 154.29 593.427 153.995 592.443C153.7 591.459 153.995 590.475 154.684 589.295C155.274 588.508 155.865 587.819 156.652 587.524C157.439 587.13 158.324 587.032 159.21 587.13C160.095 587.229 160.981 587.622 161.866 588.213C162.161 588.409 162.456 588.606 162.752 588.803C163.047 589 163.243 589.196 163.342 589.196L165.605 585.753L163.539 584.179L164.031 583.392L169.147 586.737L168.655 587.524L167.277 586.835L160.981 596.674ZM161.374 589.098C160.587 588.606 159.702 588.409 158.915 588.508C158.127 588.606 157.242 589.295 156.553 590.475C155.963 591.361 155.766 592.148 155.963 592.837C156.16 593.525 156.75 594.214 157.635 594.804C157.931 595.001 158.324 595.198 158.718 595.395C158.914 595.493 159.111 595.591 159.21 595.69L162.85 590.18C162.555 589.983 162.063 589.59 161.374 589.098Z" fill="black"/>
<path d="M156.652 579.358C157.144 580.44 157.242 581.522 156.947 582.703C156.75 583.884 156.16 585.064 155.373 586.245C154.586 587.426 153.602 588.213 152.52 588.705C151.437 589.197 150.257 589.492 149.076 589.295C147.895 589.197 146.813 588.803 145.731 588.016C144.944 587.426 144.058 586.639 143.173 585.655L142.779 585.163L144.845 582.506L145.829 583.195L144.845 585.36C144.944 585.556 145.042 585.852 145.337 586.245C145.632 586.54 146.026 586.934 146.518 587.327C147.207 587.819 147.895 588.016 148.682 588.016C149.47 588.016 150.257 587.721 151.044 587.229C151.831 586.737 152.618 585.95 153.307 584.966C153.995 583.982 154.487 583.097 154.782 582.113C155.078 581.129 155.176 580.243 154.979 579.456C154.782 578.669 154.29 577.981 153.602 577.39C153.11 576.997 152.618 576.8 152.224 576.603C151.831 576.406 151.536 576.406 151.24 576.505L149.568 577.587L148.682 576.8L150.552 574.931C150.749 575.029 151.142 575.226 151.634 575.423C152.126 575.619 152.52 575.718 152.913 575.915C153.307 576.111 153.7 576.406 154.29 576.702C155.471 577.39 156.258 578.276 156.652 579.358Z" fill="black"/>
<path d="M122.413 569.323L123.004 568.634L124.479 569.716L130.678 562.632L128.021 563.321L119.658 564.698L119.363 565.092L120.446 566.371L119.855 567.06L116.018 563.616L116.609 562.927L117.888 563.715L125.562 554.958L124.479 553.778L125.07 553.089L129.005 556.532L128.415 557.221L127.037 556.237L120.741 563.419L123.2 562.731L131.76 561.353L132.252 560.861L131.071 559.582L131.662 558.894L135.597 562.337L135.007 563.026L133.728 562.14L126.054 570.897L127.037 572.077L126.447 572.766L122.413 569.323Z" fill="black"/>
<path d="M113.263 560.763C112.771 560.468 112.378 560.173 111.984 559.976C111.591 559.779 111.394 559.484 111.099 559.287C110.017 558.205 109.328 557.221 109.033 556.237C108.738 555.254 109.033 554.466 109.82 553.679C110.508 552.991 111.296 552.597 112.181 552.597C113.067 552.597 113.854 552.892 114.641 553.384C113.854 552.597 113.362 551.712 113.362 550.826C113.362 549.941 113.657 549.154 114.247 548.465C115.133 547.481 116.215 546.989 117.297 547.088C118.379 547.186 119.56 547.776 120.937 549.055C121.429 549.547 121.921 550.039 122.216 550.531C122.512 551.023 122.807 551.416 123.004 551.712C123.2 552.007 123.299 552.204 123.299 552.302L120.839 554.368L120.15 553.679L121.429 551.613C121.233 550.925 120.741 550.236 119.954 549.547C119.363 548.957 118.675 548.662 118.084 548.76C117.494 548.858 116.707 549.252 116.018 549.941C115.526 550.531 115.231 551.121 115.133 551.81C115.133 552.499 115.526 553.286 116.313 553.975L117.297 554.86L116.608 555.647L115.821 554.86C115.428 554.466 115.034 554.27 114.542 554.073C114.05 553.876 113.558 553.876 113.067 553.975C112.575 554.073 112.083 554.368 111.591 554.86C111 555.45 110.804 556.041 110.804 556.631C110.902 557.221 111.197 557.812 111.788 558.402C112.181 558.795 112.575 559.091 112.968 559.189C113.362 559.386 113.657 559.386 113.854 559.287L115.329 558.304L116.215 559.091L114.346 561.255C114.149 561.255 113.854 561.058 113.263 560.763Z" fill="black"/>
<path d="M102.441 548.759L103.326 550.039L102.638 550.629L100.867 548.759C100.572 548.464 100.178 548.071 99.6862 547.677C99.1942 547.284 98.8991 546.989 98.7023 546.792C97.5217 545.513 96.9313 544.431 96.7346 543.545C96.6362 542.66 96.9313 541.872 97.7184 541.085C98.4071 540.495 99.0958 540.102 99.8829 540.102C100.67 540.003 101.457 540.298 102.146 540.79C101.359 539.905 100.867 539.019 100.867 538.134C100.867 537.248 101.162 536.461 101.949 535.773C102.835 534.887 103.917 534.494 105.097 534.69C106.278 534.789 107.557 535.576 109.033 537.15C109.328 537.445 109.623 537.839 109.918 538.134C110.509 538.822 110.902 539.314 111.099 539.413L112.772 541.184L112.083 541.774L110.902 540.79L102.441 548.759ZM104.015 543.053L103.326 542.266C102.736 541.676 102.146 541.282 101.457 541.282C100.768 541.282 100.178 541.577 99.4894 542.168C98.8991 542.758 98.5055 543.348 98.5055 543.939C98.5055 544.529 98.8991 545.218 99.5878 546.005C99.8829 546.3 100.276 546.693 100.572 546.989L100.867 547.284L104.704 543.742C104.704 543.742 104.409 543.447 104.015 543.053ZM108.443 537.74C107.557 536.855 106.77 536.363 105.983 536.264C105.196 536.166 104.507 536.461 103.818 537.15C103.13 537.839 102.736 538.429 102.835 539.118C102.933 539.806 103.228 540.495 104.015 541.282C104.901 542.168 105.393 542.758 105.688 543.053L109.722 539.216C109.525 539.019 109.131 538.527 108.443 537.74Z" fill="black"/>
<path d="M90.6345 537.544L89.2571 535.969L96.0457 524.163L95.4554 523.179L96.1441 522.589L99.3909 526.328L98.7022 526.918L97.5215 525.836L95.9474 528.295L99.4893 532.427L102.146 531.247L101.26 529.869L101.949 529.279L104.802 532.624L104.113 533.215L103.228 532.427L90.6345 537.544ZM92.1103 534.69L91.1264 536.166L92.7006 535.379L98.5054 532.919L95.357 529.279L92.1103 534.69Z" fill="black"/>
<path d="M93.6846 520.425C93.783 521.507 93.5863 522.688 93.0944 523.671C92.6024 524.655 91.7169 525.737 90.6347 526.623C89.5525 527.508 88.3718 528 87.1912 528.197C86.0106 528.394 84.8299 528.296 83.7477 527.902C82.6654 527.508 81.6815 526.721 80.8945 525.738C80.3041 524.95 79.7138 523.967 79.1235 522.786L78.8284 522.196L81.5832 520.228L82.3702 521.212L80.7961 523.081C80.7961 523.278 80.8945 523.671 81.0912 524.065C81.288 524.458 81.5832 524.95 81.9767 525.442C82.4686 526.033 83.0589 526.525 83.846 526.721C84.6331 526.918 85.4202 526.918 86.3057 526.623C87.1912 526.328 88.175 525.836 89.1589 525.049C90.0444 524.36 90.8315 523.573 91.4218 522.688C92.0121 521.802 92.3072 521.015 92.3072 520.13C92.4056 519.244 92.1105 518.457 91.5202 517.768C91.1266 517.276 90.7331 516.883 90.4379 516.686C90.1428 516.489 89.8476 516.292 89.4541 516.292L87.4863 516.784L86.896 515.8L89.2573 514.521C89.454 514.718 89.7492 515.013 90.1428 515.309C90.5363 515.604 90.9298 515.801 91.225 516.096C91.5202 516.391 91.9137 516.784 92.3072 517.276C93.0943 518.26 93.5863 519.342 93.6846 520.425Z" fill="black"/>
<path d="M74.8929 512.849C73.8107 512.947 72.7284 512.75 71.8429 512.357C70.9574 511.963 70.1703 511.275 69.58 510.389C68.8913 509.405 68.4978 508.421 68.4978 507.339C68.4978 506.257 68.6946 505.273 69.2849 504.388C69.8752 503.404 70.6623 502.617 71.7445 501.83C73.0236 500.944 74.2042 500.452 75.3848 500.157C76.5655 499.96 77.7461 500.059 78.7299 500.452C79.7138 500.846 80.5993 501.534 81.288 502.42C81.9767 503.404 82.3702 504.486 82.4686 505.568C82.567 506.65 82.2718 507.634 81.6815 508.618C81.0912 509.602 80.3041 510.488 79.2219 511.275L80.9928 513.734L85.4202 510.586L84.6331 509.11L85.4202 508.618L88.3718 512.849L87.5847 513.341L86.5024 512.16L77.0574 518.85L77.7461 520.228L76.959 520.72L74.0074 516.587L74.7945 516.096L75.8768 517.276L80.009 514.325L78.238 511.865C77.1558 512.455 75.9751 512.849 74.8929 512.849ZM73.3187 511.373C74.5977 511.373 76.0735 510.783 77.7461 509.504C79.2219 508.421 80.2057 507.339 80.6977 506.159C81.1896 504.978 81.0912 503.896 80.4025 502.912C79.7138 501.928 78.7299 501.534 77.5493 501.534C76.3687 501.534 74.8929 502.223 73.2203 503.404C71.7445 504.486 70.7607 505.568 70.2687 506.65C69.7768 507.831 69.8752 508.815 70.5639 509.799C71.1542 510.881 72.1381 511.373 73.3187 511.373Z" fill="black"/>
<path d="M67.7106 492.975C68.0057 492.188 68.3993 491.204 68.9896 490.023C69.3832 489.236 69.6783 488.646 69.8751 488.154C70.0719 487.76 70.0718 487.465 70.0718 487.268L69.8751 486.58L70.6622 486.088L71.9412 488.056C72.138 488.252 72.0396 488.744 71.8428 489.236C71.646 489.827 71.2525 490.614 70.6622 491.597C70.0718 492.778 69.5799 493.664 69.2848 494.352C68.9896 495.041 68.9896 495.533 69.1864 495.828L69.7767 496.812L74.3025 493.959L73.6137 492.385L74.4009 491.893L77.1556 496.222L76.3686 496.714L75.3847 495.533L65.5461 501.731L66.1364 503.109L65.3493 503.601L62.6929 499.37L63.48 498.878L64.4639 500.059L68.9896 497.206L68.1041 495.828L61.5123 495.533L62.201 497.009L61.4139 497.501L58.9542 493.565L59.7413 493.073L60.7252 494.156L67.5138 494.647C67.3171 494.352 67.4154 493.664 67.7106 492.975Z" fill="black"/>
<path d="M68.3009 483.628C68.2025 484.71 67.809 485.694 67.1203 486.58C66.4316 487.465 65.4477 488.351 64.2671 489.039C62.9881 489.728 61.8075 490.122 60.6268 490.22C59.4462 490.318 58.3639 490.023 57.3801 489.531C56.3962 489.039 55.6091 488.252 55.0188 487.17C54.0349 485.497 53.8382 483.923 54.4285 482.349C55.0188 480.873 56.1994 479.594 58.0688 478.512C59.3478 477.823 60.6268 477.43 61.8074 477.331C62.9881 477.233 64.1687 477.528 65.1526 478.02C66.1364 478.512 66.9235 479.299 67.5139 480.381C68.1042 481.464 68.3993 482.546 68.3009 483.628ZM58.5607 488.449C59.8397 488.547 61.3155 488.055 63.0865 487.072C64.759 486.186 65.8413 485.104 66.4316 484.022C67.0219 482.939 67.0219 481.759 66.4316 480.775C65.8413 479.693 64.8574 479.201 63.5784 479.102C62.2994 479.004 60.7252 479.496 58.9543 480.48C57.2817 481.365 56.1994 482.447 55.6091 483.53C55.0188 484.612 55.0188 485.694 55.6091 486.776C56.3962 487.76 57.3801 488.351 58.5607 488.449Z" fill="black"/>
<path d="M51.4769 478.217L51.9688 479.692L51.1818 480.086L50.0011 477.823C49.8043 477.429 49.5092 476.937 49.214 476.446C48.9189 475.954 48.6237 475.56 48.5253 475.265C47.7382 473.691 47.4431 472.51 47.5415 471.625C47.6398 470.739 48.2302 470.05 49.1156 469.558C49.9027 469.165 50.6898 469.067 51.4769 469.165C52.264 469.362 52.9527 469.755 53.543 470.444C52.9527 469.362 52.7559 468.476 52.9527 467.591C53.1495 466.705 53.7398 466.017 54.6253 465.623C55.7075 465.033 56.8881 464.934 57.9704 465.426C59.0526 465.82 60.1349 467 61.0204 468.771C61.2171 469.165 61.4139 469.559 61.5123 469.952C61.9058 470.838 62.201 471.329 62.2994 471.526L63.48 473.691L62.6929 474.084L61.8074 472.805L51.4769 478.217ZM54.5269 473.199L54.0349 472.313C53.6414 471.526 53.1495 471.034 52.4608 470.838C51.8704 470.641 51.0834 470.739 50.2963 471.231C49.5092 471.625 49.0172 472.117 48.9189 472.707C48.8205 473.297 48.9189 474.084 49.4108 475.068C49.6076 475.462 49.8043 475.855 50.0995 476.249L50.2963 476.544L54.9204 474.183C54.9204 473.986 54.7236 473.691 54.5269 473.199ZM60.1349 469.263C59.5446 468.181 58.9543 467.492 58.1672 467.197C57.4785 466.902 56.6914 467 55.8059 467.492C54.9204 467.886 54.4285 468.476 54.3301 469.067C54.1333 469.657 54.3301 470.542 54.822 471.526C55.4123 472.608 55.8059 473.396 56.0027 473.691L60.922 471.133C60.922 470.838 60.6268 470.247 60.1349 469.263Z" fill="black"/>
<path d="M37.8011 452.145L38.6866 451.751L39.5721 453.128L50.1978 448.406L49.7059 446.733L50.5913 446.34L52.7558 451.161L51.8703 451.554L51.0833 450.177L40.4576 454.899L42.9172 460.409L53.6413 455.687L53.1494 454.014L54.0349 453.62L56.101 458.441L55.2155 458.835L54.4284 457.556L43.8027 462.278L44.1962 463.853L43.3108 464.246L37.8011 452.145Z" fill="black"/>
<path d="M48.427 442.995C48.2302 443.979 47.6399 444.963 46.8528 445.75C46.0657 446.537 44.9835 447.225 43.6061 447.717C42.2286 448.209 40.9496 448.406 39.769 448.308C38.5884 448.209 37.5061 447.816 36.6206 447.127C35.7352 446.438 35.0465 445.553 34.6529 444.471C33.9642 442.7 33.9642 441.027 34.7513 439.65C35.5384 438.272 36.9158 437.19 38.9819 436.403C40.3593 435.911 41.6383 435.714 42.819 435.813C43.9996 435.911 45.0818 436.305 46.0657 436.993C46.9512 437.682 47.6399 438.568 48.0334 439.65C48.5254 440.929 48.6237 442.011 48.427 442.995ZM38.0964 446.34C39.3754 446.635 40.8513 446.34 42.819 445.651C44.5899 444.963 45.7705 444.176 46.5576 443.093C47.3447 442.109 47.5415 441.027 47.0496 439.847C46.656 438.764 45.7705 438.076 44.4915 437.78C43.2125 437.485 41.6383 437.78 39.769 438.469C37.9981 439.158 36.719 439.945 36.0303 441.027C35.2433 442.011 35.1448 443.093 35.6368 444.274C36.0303 445.455 36.9158 446.143 38.0964 446.34Z" fill="black"/>
<path d="M38.8835 430.204C40.5561 429.909 41.9335 429.811 42.9173 430.007C43.4093 430.106 43.8028 430.302 44.098 430.499C44.3931 430.794 44.5899 431.09 44.7867 431.483C44.9834 432.073 45.0818 432.467 45.0818 432.762L43.7044 433.352C43.606 433.057 43.5077 432.664 43.3109 431.975C43.2125 431.778 43.1141 431.581 42.9173 431.483C42.7206 431.385 42.5238 431.286 42.2286 431.188C40.5561 430.794 37.5061 431.286 33.1771 432.762L31.7997 433.254L32.2916 435.32L31.4062 435.615L27.9626 425.383L28.8481 425.088L29.6352 426.662L40.6544 422.924L40.2609 421.153L41.1464 420.857L43.0157 426.269L42.1302 426.564L41.3432 424.793L30.3239 428.433L31.5046 432.073L33.0787 431.581C35.3416 430.991 37.2109 430.499 38.8835 430.204Z" fill="black"/>
<path d="M28.1595 421.743L28.3562 423.318L27.4708 423.613L24.8143 414.463L27.5692 413.381L27.8643 414.364L26.2901 415.348L27.4708 419.874L32.4885 418.398L31.603 415.447L30.0288 415.643L29.7336 414.66L33.8659 413.479L34.161 414.463L32.6852 415.151L33.4723 418.201L38.7852 416.627L37.1126 411.61L34.5546 411.314V410.134L37.8013 409.74L40.6545 419.677L39.769 419.972L39.1787 418.497L28.1595 421.743Z" fill="black"/>
<path d="M23.9288 406.789L24.8142 409.839L28.7497 409.544L29.0449 410.724L24.1256 411.61L21.3707 400.295L26.1917 398.918L26.4868 400.099L22.8465 401.673L23.5352 404.821L34.948 401.968L34.4561 399.312L35.3416 399.115L37.0141 406.002L36.1286 406.199L35.3416 403.837L23.9288 406.789Z" fill="black"/>
<path d="M27.3723 390.948L27.5691 391.834C27.8643 392.129 28.2578 392.326 28.9465 392.522C29.5368 392.719 30.3239 392.916 31.3078 393.113C32.2916 393.31 32.9803 393.506 33.4723 393.605C33.9642 393.703 34.2593 393.9 34.2593 394.097L34.7513 396.556L33.8658 396.753L33.5707 396.064C33.4723 395.868 33.2755 395.769 32.9803 395.572C32.5868 395.474 32.0948 395.277 31.3078 394.982C30.4223 394.785 29.7336 394.49 29.1433 394.293C28.553 394.097 28.1594 393.801 27.8642 393.506C27.7659 394.392 27.4707 395.081 26.8804 395.769C26.2901 396.36 25.6014 396.753 24.6175 396.95C23.1417 397.245 22.0595 397.048 21.2724 396.261C20.4853 395.474 19.9934 394.293 19.6982 392.719C19.5998 392.326 19.5998 391.932 19.5014 391.342C19.403 390.752 19.4031 390.26 19.3047 389.964L18.8127 387.308L19.6982 387.111L20.1901 388.587L31.6029 386.324L31.4062 384.553L32.2916 384.356L33.3739 389.768L32.4884 389.964L31.9965 388.193L27.0772 389.177L27.3723 390.948ZM20.3869 391.047C20.3869 391.637 20.4853 392.129 20.5837 392.522C20.7805 393.506 21.0756 394.195 21.6659 394.589C22.2563 394.982 22.9449 395.081 24.0272 394.884C25.0111 394.687 25.6998 394.293 26.1917 393.703C26.6836 393.113 26.6836 392.326 26.5852 391.342C26.3885 390.358 26.2901 389.768 26.0933 389.374L20.4853 390.456L20.3869 391.047Z" fill="black"/>
<path d="M18.5177 380.421L19.108 383.57H23.0434L23.2402 384.75L18.2225 385.242L16.4515 373.731L21.3708 372.747L21.5676 373.928L17.829 375.108L18.2225 378.355L29.8321 376.584L29.6353 373.928L30.5208 373.829L31.603 380.913L30.7175 381.011L30.1272 378.65L18.5177 380.421Z" fill="black"/>
<path d="M28.5529 363.302C28.061 364.286 27.2739 365.171 26.29 365.762C25.3062 366.352 24.0272 366.746 22.6498 366.844C21.2724 366.942 19.9933 366.844 18.9111 366.352C17.8288 365.86 16.845 365.171 16.1563 364.188C15.4676 363.204 15.074 362.121 14.9756 360.842C14.8772 359.859 14.8773 358.678 15.074 357.399L15.1724 356.809L18.5175 356.612L18.6159 357.891L16.2547 358.58C16.1563 358.776 16.0579 359.071 15.9595 359.563C15.8611 359.957 15.8611 360.547 15.9595 361.138C16.0579 361.925 16.3531 362.613 16.845 363.204C17.3369 363.794 18.0256 364.188 19.0095 364.483C19.8949 364.778 20.9772 364.778 22.2562 364.679C23.4369 364.581 24.4207 364.286 25.4046 363.892C26.29 363.499 27.0771 362.909 27.5691 362.22C28.061 361.531 28.2578 360.744 28.1594 359.76C28.061 359.071 27.9626 358.58 27.8642 358.284C27.7658 357.989 27.5691 357.694 27.2739 357.399L25.4046 356.809V355.628L28.061 355.825C28.061 356.12 28.2578 356.415 28.4545 356.907C28.6513 357.301 28.7497 357.792 28.9465 358.186C29.1432 358.58 29.1432 359.071 29.2416 359.76C29.2416 361.039 29.0449 362.22 28.5529 363.302Z" fill="black"/>
<path d="M14.1886 349.232L15.0741 349.134L15.3692 350.905L24.7159 350.413L22.3546 349.036L15.4676 344.018H14.9757L14.8773 345.691L13.9918 345.789L13.6967 340.673L14.5821 340.574L14.8773 342.05L26.4868 341.46L26.5852 339.886H27.4707L27.7659 345.1H26.8804L26.5852 343.428L17.0418 343.92L19.3047 345.199L26.2901 350.315H26.9788L27.0772 348.544L27.9626 348.445L28.2578 353.66L27.3723 353.758L27.0772 352.184L15.4676 352.774L15.3692 354.25L14.4837 354.349L14.1886 349.232Z" fill="black"/>
<path d="M13.4999 328.965L18.4192 328.769V330.048L14.6805 330.638L14.5821 334.77L26.3885 334.573L26.5852 331.327H27.4707L27.5691 338.607H26.6836L26.4869 336.541L14.8773 336.738L14.6805 338.706H13.7951L13.4999 328.965Z" fill="black"/>
<path d="M14.6805 325.718L14.3854 327.194H13.4999L13.6967 322.078H14.5821L14.7789 323.652L19.7966 323.849L19.9934 317.257L14.9757 317.06L14.6805 318.536H13.7951L13.9918 313.519H14.8773L15.0741 314.994L26.6836 315.388L26.8804 313.912H27.7659L27.5691 318.93H26.6836L26.5852 317.356L21.174 317.159L20.9772 323.751L26.3885 323.947L26.5852 322.373H27.4707L27.2739 327.489H26.3885L26.2901 326.014L14.6805 325.718Z" fill="black"/>
<path d="M14.2869 306.73L14.4836 304.664L27.6674 301.122L27.9625 299.941L28.848 300.04L28.4545 304.959L27.569 304.861L27.4706 303.287L24.6174 303.975L24.2239 309.386L26.8803 310.469L27.1754 308.895L28.0609 308.993L27.7657 313.42L26.8803 313.322L26.7819 312.141L14.2869 306.73ZM17.4352 305.845L15.7627 306.14L17.4352 306.73L23.24 309.091L23.6335 304.369L17.4352 305.845Z" fill="black"/>
<path d="M24.4208 294.726C26.0933 295.218 27.3724 295.71 28.1595 296.3C28.553 296.596 28.8482 296.989 29.0449 297.284C29.2417 297.678 29.2417 298.071 29.2417 298.465C29.1433 299.055 29.0449 299.449 28.9465 299.744L27.4707 299.646C27.5691 299.35 27.5691 298.859 27.6675 298.268C27.6675 298.071 27.6675 297.776 27.5691 297.678C27.4707 297.481 27.274 297.284 27.0772 297.088C25.6998 296.005 22.7482 295.12 18.2225 294.628L16.7467 294.431L16.2547 296.497L15.3693 296.399L16.6483 285.675L17.5337 285.773V287.544L29.0449 288.922L29.4385 287.151L30.3239 287.249L29.6352 292.955L28.7497 292.857V290.889L17.2386 289.512L16.7467 293.251L18.4192 293.447C20.7805 293.939 22.7482 294.234 24.4208 294.726Z" fill="black"/>
<path d="M23.2401 278.689C23.5352 277.214 24.0271 276.131 24.9126 275.443C25.7981 274.754 26.782 274.557 28.061 274.754C29.4384 275.049 30.5206 275.639 31.111 276.722C31.7013 277.706 31.898 278.985 31.6029 280.46C31.6029 280.657 31.5045 280.854 31.5045 281.051C31.4061 281.247 31.4061 281.444 31.3077 281.739C31.1109 282.428 31.0126 283.018 30.9142 283.609L30.5206 286.068L29.6352 285.872L29.7335 284.297L18.2224 282.231L17.7304 283.707L16.845 283.51L17.7304 278.296L18.6159 278.493L18.5175 280.362L22.7481 281.149L23.2401 278.689ZM19.8949 266.194L20.7804 266.391L20.682 268.162L32.0948 270.228L32.5867 268.556L33.4722 268.752L32.4884 274.164L31.6029 273.967L31.7012 272.196L20.2885 270.13L19.7966 271.802L18.9111 271.606L19.8949 266.194ZM30.4222 281.641C30.5206 281.444 30.5206 281.051 30.619 280.657C30.8158 279.673 30.619 278.788 30.1271 278.099C29.6352 277.41 28.848 277.017 27.7658 276.82C26.7819 276.623 25.8965 276.82 25.3061 277.214C24.7158 277.706 24.3223 278.394 24.1255 279.378L23.8304 281.247L30.0287 282.33C30.2255 282.133 30.3239 281.838 30.4222 281.641Z" fill="black"/>
<path d="M22.945 258.029L22.3547 259.406L21.4692 259.209L22.7483 254.29L23.6337 254.487L23.437 256.061L28.3563 257.241L29.9304 250.846L25.0111 249.666L24.4208 251.043L23.5354 250.846L24.716 246.025L25.6015 246.222L25.5031 247.698L36.8175 250.551L37.4078 249.174L38.2933 249.371L37.1126 254.29L36.2272 254.093L36.4239 252.519L31.1111 251.24L29.5369 257.635L34.8498 258.914L35.4401 257.34L36.3255 257.537L35.0465 262.554L34.161 262.357L34.3578 260.882L22.945 258.029Z" fill="black"/>
<path d="M26.6836 239.433L27.2739 237.466L40.9496 236.875L41.4415 235.793L42.327 236.088L40.8512 240.811L39.9657 240.515L40.2609 238.941H37.3093L35.7351 244.156L38.0964 245.828L38.7851 244.353L39.6705 244.648L38.3915 248.878L37.5061 248.583L37.7028 247.403L26.6836 239.433ZM29.8319 239.236H28.1594L29.6352 240.122L34.8496 243.664L36.227 239.138L29.8319 239.236Z" fill="black"/>
<path d="M32.6851 224.872L31.7997 226.741L30.9142 226.446L32.6851 221.822L41.4415 222.314L43.9012 222.609L41.835 221.232L34.8496 215.82L36.6206 211.196L37.5061 211.491L37.0141 213.459L48.4269 216.116L49.214 214.64L50.0995 214.935L48.1318 220.051L47.2463 219.756L47.6398 218.083L39.4738 215.919L35.9319 215.033L38.1947 216.706L46.2624 223.101L45.8689 224.282L36.4238 223.986L32.6851 223.79L35.9319 225.364L43.5076 229.004L44.2947 227.332L45.1802 227.627L43.5076 232.153L42.6221 231.857L43.0157 230.283L32.6851 224.872Z" fill="black"/>
<path d="M39.3754 204.605L40.1624 202.735L53.8381 203.719L54.4284 202.735L55.3139 203.129L53.3462 207.655L52.4607 207.261L52.9526 205.785L50.0994 205.49L47.9349 210.508L50.0994 212.377L50.8865 211L51.772 211.393L50.0011 215.427L49.1156 215.034L49.4107 213.853L39.3754 204.605ZM42.5237 204.703L40.8512 204.506L42.2286 205.589L46.9511 209.721L48.8204 205.392L42.5237 204.703Z" fill="black"/>
<path d="M44.7867 195.652L43.9012 196.833L43.0157 196.439L44.098 194.176C44.2948 193.783 44.4915 193.389 44.5899 192.996C44.8851 192.405 45.0819 191.815 45.377 191.225C46.1641 189.65 47.0496 188.568 47.9351 188.175C48.8205 187.781 49.9028 187.879 51.0834 188.47C51.9689 188.863 52.6576 189.454 53.1495 190.241C53.6415 191.028 53.8382 191.815 53.8382 192.7C53.8382 193.586 53.6415 194.57 53.1495 195.455C52.9528 195.75 52.8544 196.144 52.6576 196.439C52.4608 196.734 52.3624 196.931 52.3624 197.029L56.1011 198.8L57.3801 196.636L58.1672 197.029L55.5108 202.539L54.7237 202.145L55.2156 200.67L44.7867 195.652ZM52.3624 195.062C52.756 194.176 52.8544 193.291 52.5592 192.504C52.2641 191.717 51.5754 191.028 50.2963 190.339C49.3125 189.847 48.5254 189.749 47.8367 190.044C47.148 190.339 46.656 190.929 46.0657 192.012C45.8689 192.405 45.7706 192.799 45.5738 193.192C45.4754 193.487 45.377 193.586 45.377 193.684L51.3786 196.537C51.6737 196.341 51.9689 195.849 52.3624 195.062Z" fill="black"/>
<path d="M61.5123 189.159C60.5284 189.749 59.4462 189.946 58.2655 189.946C57.0849 189.848 55.9043 189.552 54.6253 188.864C53.4446 188.175 52.4608 187.388 51.7721 186.306C51.0834 185.322 50.7882 184.141 50.6898 182.961C50.6898 181.78 50.8866 180.599 51.5753 179.517C52.0672 178.632 52.6575 177.746 53.6414 176.664L54.0349 176.172L56.8881 177.943L56.2978 179.025L53.9365 178.336C53.7398 178.435 53.4446 178.632 53.1495 178.927C52.8543 179.222 52.5592 179.714 52.264 180.206C51.8705 180.894 51.772 181.681 51.8704 182.37C51.9688 183.157 52.3624 183.846 52.9527 184.633C53.543 185.322 54.4285 186.01 55.5107 186.601C56.4946 187.191 57.5768 187.486 58.5607 187.683C59.5446 187.88 60.43 187.781 61.2171 187.486C62.0042 187.191 62.5945 186.601 63.0865 185.814C63.3816 185.223 63.5784 184.731 63.6768 184.436C63.7752 184.141 63.7752 183.748 63.6768 183.452L62.3978 181.878L63.0865 180.894L65.2509 182.567C65.1526 182.764 65.0542 183.157 64.9558 183.748C64.8574 184.24 64.759 184.633 64.6606 185.027C64.5622 185.42 64.3655 185.912 64.0703 186.502C63.2832 187.683 62.3978 188.569 61.5123 189.159Z" fill="black"/>
<path d="M64.5623 157.773L65.3494 158.265L64.5623 159.937L72.4332 165.054L71.351 162.496L68.7929 154.428L68.3994 154.133L67.3171 155.412L66.53 154.92L69.3832 150.591L70.1703 151.083L69.58 152.46L79.3202 158.855L80.3041 157.675L81.0912 158.167L78.238 162.496L77.4509 162.004L78.238 160.528L70.2687 155.313L71.351 157.675L73.909 165.939L74.4993 166.333L75.5815 164.955L76.3687 165.447L73.5154 169.875L72.7284 169.383L73.4171 168.005L63.6768 161.61L62.693 162.692L61.9059 162.2L64.5623 157.773Z" fill="black"/>
<path d="M71.8429 147.541C72.0397 147.049 72.2364 146.557 72.4332 146.164C72.63 145.77 72.8267 145.475 73.0235 145.18C73.909 143.901 74.8929 143.114 75.7783 142.72C76.6638 142.327 77.5493 142.524 78.4347 143.114C79.2218 143.704 79.7138 144.393 79.8122 145.278C79.9106 146.164 79.8121 146.951 79.4186 147.836C80.1073 146.951 80.8944 146.361 81.7799 146.262C82.6654 146.066 83.4525 146.262 84.2395 146.853C85.3218 147.64 85.9121 148.624 86.0105 149.706C86.1089 150.788 85.6169 152.067 84.5347 153.543C84.1411 154.133 83.6492 154.625 83.2557 155.019C82.8621 155.412 82.4686 155.707 82.1734 155.904C81.8783 156.101 81.6815 156.199 81.6815 156.298L79.2218 154.133L79.8122 153.346L82.075 154.33C82.6654 154.035 83.354 153.444 83.9444 152.559C84.4363 151.87 84.6331 151.182 84.4363 150.591C84.2395 149.903 83.846 149.312 82.9605 148.722C82.3702 148.23 81.6815 148.033 80.9928 148.132C80.3041 148.23 79.6154 148.722 78.9267 149.607L78.1396 150.69L77.2541 150.099L77.8444 149.214C78.1396 148.82 78.3364 148.328 78.4347 147.836C78.5331 147.345 78.5331 146.853 78.3364 146.361C78.1396 145.869 77.7461 145.475 77.2541 145.082C76.5654 144.59 75.9751 144.393 75.3848 144.59C74.7945 144.786 74.3025 145.18 73.8106 145.77C73.5155 146.262 73.3187 146.656 73.1219 147.049C72.9251 147.443 73.0235 147.738 73.1219 147.935L74.3025 149.214L73.6138 150.198L71.1542 148.624C71.3509 148.427 71.5477 148.033 71.8429 147.541Z" fill="black"/>
<path d="M82.1734 135.144L80.9928 136.226L80.3041 135.636L81.8782 133.668C82.1734 133.373 82.4685 132.881 82.8621 132.389C83.1572 131.897 83.4524 131.504 83.6492 131.307C84.7314 129.93 85.7153 129.143 86.6008 128.946C87.4863 128.749 88.3717 128.946 89.1588 129.536C89.8475 130.126 90.2411 130.815 90.4378 131.602C90.6346 132.389 90.4378 133.176 90.0443 133.964C90.733 132.98 91.6185 132.488 92.5039 132.291C93.3894 132.094 94.2749 132.389 94.9636 132.98C95.9475 133.767 96.4394 134.751 96.5378 135.931C96.6362 137.112 95.9474 138.489 94.6684 140.162C94.3733 140.555 94.0781 140.851 93.783 141.146C93.0943 141.834 92.7991 142.326 92.6023 142.425L91.0282 144.392L90.3394 143.802L91.1265 142.523L82.1734 135.144ZM87.9782 135.931L88.6669 135.144C89.2572 134.455 89.454 133.767 89.3556 133.176C89.2572 132.586 88.8637 131.897 88.175 131.307C87.4863 130.717 86.8959 130.52 86.3056 130.618C85.7153 130.717 85.0266 131.209 84.4363 131.996C84.1411 132.389 83.846 132.685 83.6492 133.078L83.4524 133.373L87.4862 136.62C87.3879 136.62 87.683 136.325 87.9782 135.931ZM93.8813 139.473C94.6684 138.489 95.062 137.604 94.9636 136.817C94.8652 136.03 94.4717 135.341 93.783 134.751C92.9959 134.16 92.3072 133.865 91.7168 133.964C91.0281 134.062 90.4378 134.554 89.7491 135.439C88.962 136.423 88.4701 137.014 88.2733 137.309L92.6023 140.851C92.7991 140.752 93.1926 140.26 93.8813 139.473Z" fill="black"/>
<path d="M91.6185 121.862L92.9959 120.288L105.688 125.404L106.573 124.617L107.262 125.207L104.015 128.946L103.326 128.356L104.212 127.077L101.556 125.896L97.9152 130.028L99.391 132.488L100.572 131.406L101.26 131.996L98.3088 135.341L97.6201 134.751L98.2104 133.767L91.6185 121.862ZM94.6685 122.945L93.0943 122.256L94.0782 123.732L97.3249 129.143L100.473 125.601L94.6685 122.945Z" fill="black"/>
<path d="M108.934 122.453C107.852 122.748 106.77 122.65 105.589 122.355C104.507 121.961 103.425 121.272 102.343 120.288C101.359 119.305 100.67 118.222 100.276 117.14C99.8829 116.058 99.8829 114.779 100.178 113.697C100.473 112.516 101.064 111.532 101.949 110.548C102.638 109.86 103.523 109.171 104.704 108.384L105.196 107.99L107.459 110.45L106.573 111.335L104.507 110.056C104.31 110.056 104.015 110.253 103.622 110.45C103.228 110.647 102.834 111.04 102.441 111.434C101.851 112.024 101.555 112.713 101.457 113.401C101.359 114.189 101.457 114.976 101.851 115.861C102.244 116.747 102.933 117.632 103.818 118.419C104.704 119.206 105.589 119.895 106.475 120.288C107.36 120.682 108.246 120.879 109.131 120.879C110.017 120.879 110.705 120.485 111.394 119.797C111.886 119.305 112.181 118.911 112.28 118.616C112.476 118.321 112.575 117.927 112.575 117.632L111.788 115.763L112.673 114.976L114.247 117.14C114.05 117.337 113.854 117.632 113.657 118.124C113.46 118.518 113.263 118.911 112.968 119.305C112.771 119.698 112.378 120.092 111.984 120.485C111.099 121.568 110.017 122.158 108.934 122.453Z" fill="black"/>
<path d="M113.755 102.775C113.559 101.693 113.559 100.611 113.854 99.6267C114.149 98.6428 114.641 97.8557 115.428 97.0686C116.313 96.1831 117.297 95.6912 118.281 95.4944C119.265 95.2977 120.347 95.3961 121.331 95.888C122.315 96.3799 123.299 97.0686 124.283 97.9541C125.365 99.0363 126.054 100.217 126.447 101.398C126.841 102.578 126.939 103.66 126.644 104.743C126.349 105.825 125.857 106.71 125.07 107.498C124.184 108.383 123.2 108.875 122.118 109.072C121.134 109.268 120.052 109.17 119.068 108.777C118.084 108.383 117.002 107.694 116.117 106.71L113.952 108.777L117.691 112.712L118.97 111.728L119.56 112.417L115.821 115.959L115.231 115.27L116.215 114.089L108.246 105.628L106.967 106.514L106.278 105.825L109.918 102.381L110.607 103.07L109.623 104.251L113.067 107.891L115.329 105.825C114.542 104.939 114.05 103.956 113.755 102.775ZM115.133 101.102C115.329 102.381 116.117 103.759 117.592 105.235C118.871 106.514 120.052 107.399 121.331 107.694C122.61 107.989 123.594 107.793 124.578 106.907C125.463 106.12 125.758 105.038 125.463 103.857C125.168 102.677 124.381 101.299 123.004 99.8234C121.725 98.5444 120.544 97.6589 119.363 97.3638C118.183 97.0686 117.1 97.2654 116.215 98.0525C115.329 98.8396 114.936 99.8234 115.133 101.102Z" fill="black"/>
<path d="M132.547 92.8389C133.334 93.0357 134.318 93.3308 135.597 93.626C136.483 93.9211 137.073 94.1179 137.565 94.2163C138.057 94.3147 138.253 94.3147 138.45 94.2163L139.139 93.9211L139.729 94.6098L137.958 96.0856C137.762 96.2824 137.368 96.2824 136.778 96.184C136.187 96.0856 135.4 95.7905 134.318 95.3969C133.137 94.905 132.154 94.6098 131.465 94.4131C130.776 94.2163 130.284 94.3147 129.989 94.5114L129.104 95.2985L132.547 99.3324L133.925 98.4469L134.515 99.1356L130.579 102.481L129.989 101.792L131.071 100.71L123.594 91.855L122.315 92.6421L121.725 91.9534L125.562 88.7067L126.152 89.3954L125.07 90.576L128.513 94.7082L129.694 93.626L129.104 87.0341L127.726 87.9196L127.136 87.2309L130.678 84.2793L131.268 84.968L130.284 86.0502L130.678 92.8389C131.071 92.7405 131.76 92.7405 132.547 92.8389Z" fill="black"/>
<path d="M141.894 92.1495C140.811 92.2479 139.828 91.9527 138.844 91.3624C137.86 90.7721 136.876 89.985 135.991 88.8043C135.105 87.6237 134.515 86.5415 134.318 85.3608C134.121 84.1802 134.121 83.0979 134.515 82.0157C134.908 80.9335 135.597 80.048 136.482 79.3593C138.057 78.1786 139.532 77.7851 141.107 78.0803C142.681 78.3754 144.157 79.4577 145.436 81.1302C146.321 82.3109 146.911 83.4915 147.108 84.6721C147.305 85.8528 147.305 87.0334 146.911 88.1156C146.518 89.1979 145.829 90.0834 144.944 90.7721C143.96 91.6575 142.976 92.0511 141.894 92.1495ZM135.794 83.2947C135.892 84.5737 136.581 85.9511 137.761 87.6237C138.942 89.0995 140.123 90.0834 141.303 90.4769C142.484 90.9688 143.566 90.7721 144.55 89.985C145.534 89.2963 145.928 88.214 145.829 86.935C145.731 85.656 145.042 84.1802 143.763 82.606C142.582 81.1302 141.402 80.1464 140.221 79.7528C139.041 79.3593 137.958 79.4577 136.974 80.2447C136.089 81.0318 135.695 82.0157 135.794 83.2947Z" fill="black"/>
<path d="M144.845 74.735L143.468 75.4237L142.976 74.6366L145.042 73.1608C145.436 72.964 145.829 72.5705 146.321 72.1769C146.813 71.7834 147.108 71.4882 147.403 71.3899C148.781 70.406 149.961 69.9141 150.847 69.9141C151.732 69.9141 152.519 70.3076 153.11 71.1931C153.602 71.8818 153.897 72.6689 153.798 73.456C153.7 74.243 153.405 75.0301 152.815 75.6205C153.798 74.9317 154.684 74.6366 155.569 74.6366C156.455 74.6366 157.242 75.1285 157.832 76.014C158.521 76.9979 158.816 78.1785 158.521 79.2607C158.226 80.4414 157.242 81.622 155.569 82.8026C155.176 83.0978 154.881 83.2946 154.487 83.4913C153.7 83.9833 153.208 84.3768 153.011 84.4752L150.945 85.951L150.453 85.2623L151.634 84.18L144.845 74.735ZM150.257 77.0962L151.142 76.5059C151.831 76.014 152.224 75.4237 152.323 74.735C152.421 74.0463 152.224 73.3576 151.634 72.6689C151.142 71.9802 150.552 71.5866 149.961 71.4882C149.371 71.3899 148.584 71.685 147.699 72.2753C147.305 72.5705 147.01 72.8656 146.616 73.1608L146.321 73.456L149.371 77.6866C149.469 77.5882 149.765 77.3914 150.257 77.0962ZM154.881 82.1139C155.865 81.4252 156.455 80.6381 156.652 79.8511C156.848 79.064 156.652 78.3753 156.061 77.4898C155.471 76.7027 154.881 76.3092 154.29 76.2108C153.602 76.1124 152.815 76.4075 151.929 77.0962C150.847 77.7849 150.257 78.2769 149.961 78.4737L153.208 82.9994C153.503 83.0978 154.094 82.7043 154.881 82.1139Z" fill="black"/>
<path d="M168.753 57.6162L169.245 58.4033L168.064 59.4855L174.164 69.3242L175.739 68.5371L176.23 69.3242L171.803 72.079L171.311 71.2919L172.492 70.308L166.293 60.371L161.177 63.5194L167.376 73.4564L168.95 72.6693L169.442 73.4564L165.014 76.2112L164.523 75.4241L165.703 74.4402L159.603 64.6016L158.127 65.2903L157.635 64.5032L168.753 57.6162Z" fill="black"/>
<path d="M179.28 66.7665C178.198 66.6681 177.214 66.2746 176.329 65.5859C175.443 64.8972 174.656 63.9133 173.968 62.6343C173.279 61.3553 172.885 60.1746 172.787 58.8956C172.689 57.715 172.984 56.6327 173.476 55.6489C173.968 54.665 174.755 53.8779 175.837 53.2876C177.51 52.3037 179.084 52.107 180.658 52.6973C182.134 53.2876 183.413 54.4682 184.495 56.436C185.184 57.715 185.577 58.994 185.676 60.1746C185.774 61.4536 185.479 62.5359 184.889 63.5198C184.298 64.5036 183.511 65.2907 182.527 65.881C181.347 66.5697 180.363 66.8649 179.28 66.7665ZM174.46 57.0263C174.361 58.3053 174.853 59.7811 175.837 61.552C176.722 63.2246 177.805 64.3068 178.887 64.8972C179.969 65.4875 181.15 65.4875 182.134 64.8972C183.216 64.3068 183.708 63.4214 183.806 62.044C183.905 60.7649 183.413 59.1908 182.429 57.4198C181.543 55.7473 180.461 54.665 179.379 54.0747C178.297 53.4844 177.214 53.4844 176.132 54.0747C175.148 54.8618 174.558 55.8456 174.46 57.0263Z" fill="black"/>
<path d="M190.693 55.55C191.284 57.2226 191.48 58.5016 191.382 59.5838C191.382 60.0758 191.185 60.5677 190.988 60.8628C190.792 61.158 190.497 61.4532 190.103 61.6499C189.611 61.9451 189.119 62.0435 188.922 62.1419L188.135 60.8628C188.43 60.7645 188.824 60.5677 189.414 60.2725C189.611 60.1741 189.808 60.0758 189.906 59.879C190.005 59.6822 190.103 59.4854 190.103 59.1903C190.3 57.4193 189.316 54.5661 187.25 50.4339L186.561 49.1549L184.495 49.942L184.101 49.1549L193.743 44.334L194.137 45.1211L192.661 46.1049L197.875 56.5339L199.646 55.8452L200.04 56.6322L194.924 59.1903L194.53 58.4032L196.203 57.3209L190.988 46.892L187.643 48.5646L188.43 50.0404C189.316 52.1065 190.103 53.9758 190.693 55.55Z" fill="black"/>
<path d="M197.482 43.7438L196.006 44.1373L195.613 43.2519L204.271 39.3164L205.746 41.8744L204.762 42.268L203.483 40.7922L199.253 42.5631L201.417 47.3841L204.271 46.0067L203.877 44.5309L204.861 44.1373L206.632 48.0728L205.648 48.4663L204.762 47.0889L201.909 48.3679L204.172 53.484L208.895 51.1227L208.796 48.5647L209.977 48.4663L210.862 51.6147L201.417 55.8453L201.024 55.0582L202.401 54.2711L197.482 43.7438Z" fill="black"/>
<path d="M211.748 37.4474L208.796 38.7264L209.682 42.5635L208.501 43.0554L206.927 38.3329L217.75 34.0039L219.816 38.5297L218.733 38.9232L216.667 35.4797L213.617 36.5619L218.045 47.4828L220.603 46.6957L220.898 47.5812L214.306 50.2376L214.011 49.3521L216.175 48.2699L211.748 37.4474Z" fill="black"/>
<path d="M227.883 38.6277L226.998 38.9228C226.801 39.218 226.604 39.7099 226.506 40.3003C226.407 40.989 226.309 41.776 226.309 42.7599C226.211 43.7438 226.211 44.4325 226.112 44.9244C226.014 45.4163 225.915 45.7115 225.719 45.8099L223.357 46.6954L223.062 45.8099L223.653 45.4163C223.849 45.3179 223.948 45.1212 224.046 44.7276C224.144 44.3341 224.243 43.7438 224.341 42.9567C224.44 42.0712 224.636 41.2841 224.735 40.6938C224.932 40.1035 225.128 39.6116 225.424 39.3164C224.538 39.4148 223.751 39.218 223.062 38.7261C222.374 38.2341 221.882 37.5454 221.586 36.66C221.095 35.2826 221.193 34.1019 221.783 33.3148C222.472 32.4294 223.554 31.7407 225.128 31.2487C225.424 31.1503 225.915 30.9536 226.506 30.8552C227.096 30.6584 227.49 30.56 227.785 30.4616L230.343 29.5762L230.638 30.4616L229.261 31.1503L233.098 41.9728L234.77 41.5793L235.065 42.4647L229.851 44.3341L229.556 43.4486L231.228 42.6615L229.556 37.939L227.883 38.6277ZM226.801 31.6423C226.211 31.7407 225.817 31.9374 225.325 32.0358C224.44 32.331 223.751 32.8229 223.456 33.3148C223.062 33.9052 223.062 34.6922 223.456 35.6761C223.751 36.66 224.341 37.2503 224.932 37.6438C225.62 37.939 226.407 37.939 227.293 37.6438C228.277 37.3487 228.867 37.0535 229.162 36.9551L227.293 31.5439L226.801 31.6423Z" fill="black"/>
<path d="M237.033 28.3959L233.983 29.4782L234.475 33.4136L233.294 33.8072L232.114 28.8878L243.231 25.4443L244.904 30.1669L243.822 30.462L242.051 26.9201L238.902 27.8056L242.346 39.12L244.904 38.5297L245.199 39.4152L238.411 41.4813L238.115 40.5958L240.378 39.7103L237.033 28.3959Z" fill="black"/>
<path d="M255.431 35.8727C254.349 35.4791 253.464 34.8888 252.677 34.0033C251.889 33.1179 251.398 31.9372 251.004 30.5598C250.709 29.1824 250.709 27.9034 251.004 26.7228C251.299 25.5421 251.889 24.5583 252.775 23.7712C253.66 22.9841 254.644 22.3938 255.923 22.0986C256.809 21.9019 257.989 21.7051 259.367 21.7051H259.957L260.547 25.0502L259.367 25.3454L258.383 23.1809C258.186 23.0825 257.891 22.9841 257.399 22.9841C256.907 22.9841 256.415 23.0825 255.825 23.1809C255.038 23.3776 254.447 23.7712 253.956 24.3615C253.464 24.9518 253.168 25.7389 252.972 26.6244C252.873 27.6082 252.873 28.5921 253.168 29.8711C253.464 31.0518 253.857 32.0356 254.349 32.8227C254.841 33.6098 255.53 34.2985 256.317 34.692C257.104 35.0856 257.891 35.184 258.776 34.9872C259.465 34.7904 259.859 34.692 260.252 34.4953C260.547 34.2985 260.843 34.1017 261.039 33.8066L261.335 31.8388L262.515 31.7405L262.712 34.3969C262.417 34.4953 262.122 34.692 261.63 34.8888C261.236 35.0856 260.843 35.3807 260.449 35.4791C260.055 35.6759 259.564 35.7743 258.973 35.9711C257.694 36.2662 256.514 36.2662 255.431 35.8727Z" fill="black"/>
<path d="M267.238 19.6396L267.434 20.5251L265.663 21.1154L267.434 30.3637L268.517 27.8057L272.55 20.3283L272.452 19.8364L270.779 19.9348L270.583 19.0493L275.6 18.0654L275.797 18.9509L274.42 19.4428L276.683 30.8556L278.257 30.7572L278.454 31.6427L273.338 32.6266L273.141 31.7411L274.715 31.2492L272.846 21.9025L271.862 24.2638L267.729 31.8395L267.828 32.5282L269.599 32.3314L269.796 33.2169L264.581 34.2008L264.384 33.3153L265.86 32.8233L263.597 21.4106L262.121 21.5089L261.925 20.6235L267.238 19.6396Z" fill="black"/>
<path d="M287.308 16.1953L288.194 21.0162L286.915 21.213L285.833 17.5727L281.7 18.0646L283.471 29.7726L286.718 29.4774L286.816 30.3629L279.536 31.4452L279.437 30.5597L281.405 30.0677L279.634 18.655H277.666L277.568 17.7695L287.308 16.1953Z" fill="black"/>
<path d="M290.752 16.8842L289.276 16.7858L289.178 15.9003L294.195 15.31L294.294 16.1955L292.719 16.589L293.31 21.6067L299.803 20.918L299.213 15.9003L297.639 15.802L297.54 14.9165L302.558 14.3262L302.657 15.2116L301.181 15.6052L302.46 27.1164H303.936L304.034 28.0018L299.016 28.5922L298.918 27.7067L300.394 27.3131L299.803 21.9019L293.31 22.5906L293.9 28.0018H295.573L295.671 28.8873L290.555 29.4776L290.457 28.5922L291.932 28.1986L290.752 16.8842Z" fill="black"/>
<path d="M309.445 13.9333L311.511 13.835L316.824 26.4284L318.005 26.5268L318.103 27.4122L313.184 27.7074L313.085 26.8219L314.66 26.5268L313.577 23.772L308.166 24.0671L307.477 26.9203L309.052 27.0187L309.15 27.9042L304.723 28.1993L304.624 27.3139L305.805 27.0187L309.445 13.9333ZM310.823 16.7865L310.232 15.2124L309.937 16.8849L308.461 22.9849L313.184 22.6897L310.823 16.7865Z" fill="black"/>
<path d="M322.727 22.1973C322.531 23.8698 322.137 25.2472 321.645 26.1327C321.35 26.6247 321.055 26.9198 320.76 27.1166C320.464 27.3134 320.071 27.4117 319.579 27.4117C318.989 27.4117 318.497 27.4117 318.202 27.3134L318.005 25.8376C318.3 25.8376 318.792 25.8376 319.382 25.8376C319.579 25.8376 319.776 25.7392 319.972 25.6408C320.169 25.5424 320.268 25.3456 320.464 25.0505C321.35 23.5747 321.842 20.5247 321.743 15.9006V14.4248H319.677V13.4409L330.5 13.2441V14.228L328.729 14.5232L328.926 26.1327L330.795 26.3295V27.215L324.99 27.3134V26.4279L326.958 26.2311L326.761 14.6215L322.924 14.7199V16.3925C323.022 18.4586 322.924 20.5247 322.727 22.1973Z" fill="black"/>
<path d="M338.469 18.8521C339.945 18.9505 341.125 19.3441 341.913 20.0328C342.7 20.7215 343.093 21.8037 342.995 23.0828C342.896 24.5585 342.405 25.6408 341.519 26.3295C340.535 27.1166 339.355 27.4117 337.879 27.4117C337.682 27.4117 337.485 27.4117 337.288 27.4117C337.092 27.4117 336.895 27.4117 336.6 27.3134C335.911 27.215 335.222 27.215 334.632 27.1166L332.074 27.0182V26.1327L333.648 26.0343L334.042 14.4248L332.566 14.1296V13.2441L337.879 13.4409V14.3264L336.009 14.5232L335.813 18.8521H338.469ZM336.501 26.3295C336.698 26.3295 337.092 26.4279 337.485 26.4279C338.567 26.4279 339.355 26.2311 339.945 25.6408C340.535 25.0505 340.83 24.2634 340.83 23.1811C340.83 22.0989 340.634 21.4102 340.043 20.8199C339.551 20.3279 338.764 20.0328 337.682 19.9344H335.813L335.616 26.2311C336.009 26.2311 336.305 26.3295 336.501 26.3295ZM350.374 13.8345V14.7199L348.603 14.9167L348.209 26.5263L349.98 26.8214V27.7069L344.471 27.5101V26.6247L346.242 26.5263L346.635 14.9167L344.864 14.6215V13.7361L350.374 13.8345Z" fill="black"/>
<path d="M358.835 15.7038L357.359 15.3103L357.458 14.4248L362.475 14.9167L362.377 15.8022L360.803 15.9006L360.311 20.9183L366.903 21.607L367.395 16.5893L365.919 16.1958L366.017 15.3103L371.035 15.8022L370.937 16.6877L369.461 16.7861L368.28 28.3956L369.756 28.6908L369.658 29.5763L364.64 29.0843L364.738 28.1989H366.312L366.903 22.7876L360.311 22.0989L359.721 27.5102L361.295 27.9037L361.196 28.7892L356.08 28.1989L356.179 27.3134H357.753L358.835 15.7038Z" fill="black"/>
<path d="M377.725 16.6875L379.791 16.9827L382.349 30.4616L383.432 30.8551L383.333 31.7406L378.414 30.9535L378.512 30.068L380.086 30.1664L379.693 27.2148L374.282 26.4277L373.003 28.9858L374.577 29.3793L374.478 30.2648L370.051 29.5761L370.149 28.6906H371.33L377.725 16.6875ZM378.512 19.8359L378.315 18.1633L377.627 19.7375L374.872 25.3455L379.594 26.0342L378.512 19.8359Z" fill="black"/>
<path d="M392.975 20.623L391.007 19.9343L391.204 19.0488L396.025 20.1311L396.812 28.8874L396.91 31.3471L397.993 29.1826L402.322 21.5085L407.143 22.5907L406.946 23.4762L404.88 23.2794L403.798 34.889L405.372 35.4793L405.175 36.3648L399.96 35.1841L400.157 34.2987L401.83 34.4954L402.814 26.1326L403.207 22.4923L401.83 24.952L396.714 33.8067L395.533 33.5116L394.549 24.0665L394.254 20.4262L393.172 23.8697L390.614 31.9374L392.385 32.5277L392.188 33.4132L387.465 32.331L387.662 31.4455L389.236 31.6423L392.975 20.623Z" fill="black"/>
<path d="M414.03 24.3623L415.997 24.9526L416.981 38.6283L418.063 39.0218L417.867 39.9073L413.144 38.6283L413.341 37.7428L414.915 37.9396L414.817 35.0864L409.602 33.6106L408.028 36.0703L409.504 36.6606L409.307 37.546L405.076 36.3654L405.273 35.4799L406.454 35.5783L414.03 24.3623ZM414.423 27.5107V25.8381L413.538 27.3139L410.094 32.6267L414.718 33.9058L414.423 27.5107Z" fill="black"/>
<path d="M423.671 28.3955L422.392 27.7068L422.688 26.8213L425.049 27.6084C425.442 27.7068 425.934 27.9035 426.328 28.0019C427.017 28.1987 427.607 28.2971 428.197 28.4939C429.87 29.0842 431.05 29.7729 431.542 30.6583C432.034 31.5438 432.133 32.6261 431.739 33.8067C431.444 34.7906 430.952 35.4793 430.263 36.0696C429.575 36.6599 428.788 36.9551 427.902 37.0534C427.017 37.1518 426.033 37.0534 425.049 36.7583C424.655 36.6599 424.36 36.5615 423.967 36.3647C423.573 36.2664 423.376 36.168 423.278 36.0696L421.999 40.005L424.36 40.9889L424.065 41.8744L418.26 40.005L418.555 39.1196L420.13 39.4147L423.671 28.3955ZM425.344 35.8728C426.328 36.168 427.115 36.168 427.902 35.7744C428.689 35.3809 429.279 34.5938 429.673 33.2164C429.968 32.2325 429.968 31.347 429.575 30.7567C429.181 30.1664 428.492 29.6745 427.41 29.2809C427.017 29.1826 426.623 29.0842 426.131 28.9858C425.836 28.8874 425.639 28.8874 425.639 28.8874L423.573 35.1841C423.967 35.3809 424.459 35.5777 425.344 35.8728Z" fill="black"/>
<path d="M432.428 44.0388C431.739 43.1533 431.346 42.0711 431.247 40.9888C431.149 39.9066 431.346 38.5292 431.838 37.1518C432.329 35.8728 433.018 34.7905 433.904 34.0034C434.789 33.2163 435.871 32.7244 437.052 32.5276C438.233 32.3309 439.413 32.4292 440.594 32.9212C441.479 33.2163 442.562 33.8067 443.644 34.4954L444.234 34.7905L442.857 37.8405L441.676 37.4469L442.07 35.0857C441.971 34.8889 441.676 34.6921 441.381 34.397C441.086 34.1018 440.496 33.905 439.905 33.7083C439.118 33.4131 438.429 33.4131 437.642 33.6099C436.855 33.8067 436.167 34.2986 435.576 34.9873C434.986 35.676 434.396 36.6598 434.002 37.7421C433.609 38.8243 433.412 39.9066 433.313 40.8904C433.313 41.8743 433.412 42.7598 433.904 43.5469C434.396 44.334 434.986 44.8259 435.871 45.121C436.462 45.3178 436.954 45.5146 437.347 45.5146C437.741 45.5146 438.036 45.5146 438.331 45.4162L439.708 43.9404L440.791 44.5307L439.413 46.892C439.118 46.7936 438.725 46.7936 438.233 46.6952C437.741 46.6952 437.347 46.5968 436.855 46.5968C436.462 46.4985 435.97 46.4001 435.379 46.2033C434.199 45.613 433.117 44.9243 432.428 44.0388Z" fill="black"/>
<path d="M459.779 40.7924L459.386 41.6779L457.615 41.0876L453.778 49.6472L456.139 48.1714L463.715 44.4327L463.911 43.9408L462.534 43.0553L462.927 42.1698L467.65 44.3343L467.257 45.2198L465.781 44.8263L460.96 55.4519L462.337 56.239L461.944 57.0261L457.221 54.8616L457.615 54.0745L459.189 54.5665L463.124 45.9085L460.96 47.2859L453.187 51.123L452.892 51.7133L454.368 52.5988L453.974 53.3858L449.153 51.2214L449.547 50.4343L451.023 50.9262L455.844 40.3005L454.565 39.5134L454.958 38.6279L459.779 40.7924Z" fill="black"/>
<path d="M471.094 46.3999C471.684 46.4983 472.077 46.695 472.471 46.7934C472.864 46.8918 473.258 47.0886 473.553 47.187C474.931 47.8757 475.914 48.6628 476.406 49.5482C476.898 50.4337 476.898 51.3192 476.406 52.2047C475.914 53.0901 475.324 53.6805 474.439 53.8772C473.652 54.1724 472.766 54.1724 471.881 53.8772C472.865 54.4675 473.553 55.1562 473.848 55.9433C474.144 56.7304 474.045 57.6159 473.652 58.403C473.061 59.5836 472.176 60.3707 471.094 60.5675C470.011 60.8626 468.732 60.5675 467.06 59.7804C466.371 59.4852 465.879 59.0917 465.387 58.6981C464.895 58.3046 464.6 58.0094 464.305 57.8127C464.108 57.6159 463.911 57.4191 463.813 57.3207L465.584 54.5659L466.371 54.9595L465.781 57.3207C466.174 57.9111 466.863 58.403 467.748 58.8949C468.536 59.2885 469.126 59.3869 469.815 59.0917C470.405 58.7965 470.995 58.3046 471.389 57.4191C471.782 56.7304 471.782 56.0417 471.684 55.353C471.585 54.6643 470.897 54.074 469.913 53.5821L468.732 52.9918L469.224 52.1063L470.208 52.5982C470.7 52.795 471.192 52.9918 471.684 52.9918C472.176 52.9918 472.668 52.8934 473.16 52.5982C473.652 52.3031 473.947 51.9095 474.242 51.3192C474.635 50.5321 474.734 49.9418 474.439 49.3515C474.242 48.7612 473.75 48.3676 472.963 47.9741C472.471 47.6789 472.077 47.5805 471.586 47.4821C471.192 47.3837 470.897 47.4821 470.7 47.5805L469.618 48.9579L468.536 48.466L469.716 45.8096C470.11 46.1047 470.503 46.2031 471.094 46.3999Z" fill="black"/>
<path d="M484.868 54.7631L483.687 53.7793L484.179 52.9922L486.343 54.2712C486.737 54.468 487.229 54.7631 487.819 55.0583C488.41 55.3535 488.803 55.5502 489 55.6486C490.476 56.5341 491.459 57.3212 491.755 58.2067C492.148 58.9937 492.05 59.8792 491.558 60.7647C491.066 61.5518 490.476 62.0437 489.787 62.3389C489.098 62.634 488.213 62.634 487.327 62.3389C488.41 62.9292 489.098 63.6179 489.393 64.5034C489.689 65.3888 489.59 66.1759 489.098 67.0614C488.508 68.1436 487.524 68.8324 486.442 69.0291C485.261 69.2259 483.785 68.8324 482.014 67.8485C481.621 67.6517 481.227 67.3566 480.932 67.1598C480.145 66.6679 479.653 66.3727 479.456 66.2743L477.292 64.9953L477.784 64.2082L479.26 64.7985L484.868 54.7631ZM482.408 66.963C483.49 67.5533 484.376 67.8485 485.163 67.6517C485.95 67.4549 486.54 66.963 487.032 66.1759C487.524 65.3888 487.622 64.6018 487.426 64.0114C487.229 63.4211 486.639 62.8308 485.655 62.2405C484.572 61.6502 483.884 61.2566 483.589 61.0599L480.834 65.8808C480.932 66.0775 481.522 66.3727 482.408 66.963ZM485.064 60.5679L485.95 61.0599C486.737 61.4534 487.426 61.6502 488.016 61.4534C488.606 61.2566 489.197 60.7647 489.59 59.9776C489.984 59.1905 490.18 58.6002 489.984 58.0099C489.787 57.4196 489.197 56.8292 488.311 56.3373C487.918 56.1405 487.524 55.9438 487.032 55.747L486.639 55.5502L484.08 60.076C484.277 60.076 484.572 60.2728 485.064 60.5679Z" fill="black"/>
<path d="M499.527 61.9453L501.298 63.0276L498.248 76.3097L499.134 77.0968L498.642 77.8839L494.509 75.2274L495.001 74.4403L496.379 75.129L497.166 72.2759L492.542 69.3243L490.279 71.1936L491.558 72.1775L491.066 72.9646L487.327 70.6033L487.819 69.8162L488.901 70.3081L499.527 61.9453ZM498.838 65.0937L499.33 63.4211L498.051 64.6017L493.23 68.6356L497.264 71.1936L498.838 65.0937Z" fill="black"/>
<path d="M501.495 79.1628C501.003 78.0806 500.905 76.9983 501.101 75.8177C501.298 74.6371 501.79 73.4564 502.676 72.2758C503.463 71.0952 504.446 70.3081 505.529 69.7177C506.611 69.1274 507.792 68.9307 508.972 69.029C510.153 69.1274 511.235 69.521 512.317 70.3081C513.104 70.8984 513.99 71.6855 514.875 72.6693L515.269 73.1613L513.203 75.8177L512.219 75.129L513.203 72.8661C513.104 72.6693 513.006 72.3742 512.711 72.079C512.416 71.7839 512.022 71.3903 511.53 71.0951C510.842 70.6032 510.153 70.4064 509.366 70.4064C508.579 70.4064 507.792 70.7016 507.005 71.1935C506.217 71.6855 505.43 72.4726 504.742 73.4564C504.053 74.4403 503.561 75.4241 503.266 76.3096C502.971 77.2935 502.971 78.179 503.167 78.966C503.364 79.7531 503.856 80.4418 504.643 81.0321C505.234 81.4257 505.627 81.6225 506.021 81.7208C506.414 81.8192 506.709 81.9176 507.005 81.8192L508.677 80.737L509.563 81.5241L507.693 83.4918C507.496 83.3934 507.103 83.1966 506.611 82.9999C506.119 82.9015 505.726 82.7047 505.332 82.5079C504.938 82.3112 504.446 82.1144 503.955 81.7208C502.774 81.1305 501.987 80.2451 501.495 79.1628Z" fill="black"/>
<path d="M521.664 80.9339C522.746 80.5404 523.73 80.442 524.714 80.5404C525.698 80.6387 526.682 81.1307 527.469 81.721C528.453 82.5081 529.043 83.2952 529.437 84.279C529.732 85.2629 529.83 86.2468 529.535 87.329C529.24 88.4113 528.748 89.4935 527.862 90.5757C526.977 91.7564 525.895 92.6419 524.812 93.2322C523.73 93.8225 522.648 94.0193 521.467 93.9209C520.287 93.8225 519.401 93.4289 518.516 92.7402C517.532 91.9532 516.843 91.0677 516.45 90.0838C516.056 89.0999 516.056 88.1161 516.253 87.0338C516.548 85.9516 517.04 84.8693 517.827 83.7871L515.466 81.9178L512.121 86.2468L513.301 87.4274L512.711 88.1161L508.677 84.9677L509.267 84.279L510.645 85.0661L517.729 75.9162L516.646 74.834L517.237 74.0469L521.172 77.0968L520.582 77.8839L519.204 77.0968L516.154 81.0323L518.516 82.9016C519.696 82.0162 520.68 81.4258 521.664 80.9339ZM523.632 82.0161C522.451 82.4097 521.172 83.3936 519.893 85.0661C518.811 86.5419 518.122 87.8209 518.024 89.0999C517.925 90.379 518.319 91.3628 519.303 92.1499C520.287 92.8386 521.27 93.0354 522.451 92.5435C523.632 92.1499 524.812 91.0677 526.091 89.4935C527.174 88.0177 527.862 86.7387 527.961 85.4597C528.059 84.1806 527.666 83.1968 526.78 82.5081C525.895 81.8194 524.812 81.6226 523.632 82.0161Z" fill="black"/>
<path d="M534.454 97.955C534.454 98.7421 534.257 99.8244 534.061 101.103C533.864 101.989 533.864 102.678 533.765 103.071C533.765 103.465 533.766 103.858 533.864 103.957L534.257 104.547L533.667 105.236L531.896 103.76C531.699 103.563 531.601 103.17 531.699 102.579C531.798 101.989 531.896 101.103 532.093 100.021C532.388 98.7421 532.487 97.7583 532.585 97.0696C532.683 96.3809 532.486 95.8889 532.29 95.5938L531.404 94.8067L527.961 98.8405L529.043 100.12L528.453 100.808L524.616 97.4631L525.206 96.7744L526.485 97.6599L534.061 88.9035L533.077 87.7229L533.667 87.0342L537.406 90.2809L536.815 90.9696L535.536 90.0841L531.995 94.118L533.175 95.2002L539.57 93.626L538.488 92.4454L539.078 91.7567L542.522 94.8067L541.932 95.4954L540.653 94.7083L534.061 96.1841C534.356 96.5776 534.454 97.1679 534.454 97.955Z" fill="black"/>
<path d="M536.52 107.105C536.324 106.121 536.324 105.039 536.816 103.956C537.209 102.874 537.898 101.792 538.882 100.808C539.865 99.7258 540.948 99.0371 542.03 98.6435C543.211 98.25 544.293 98.1516 545.375 98.3484C546.457 98.5452 547.441 99.0371 548.327 99.9226C549.704 101.3 550.393 102.677 550.294 104.35C550.196 105.924 549.409 107.498 547.933 109.072C546.949 110.155 545.867 110.843 544.686 111.335C543.506 111.729 542.424 111.827 541.243 111.631C540.161 111.434 539.177 110.843 538.291 110.056C537.307 109.072 536.816 108.089 536.52 107.105ZM544.391 99.6274C543.211 99.9226 541.833 100.808 540.456 102.284C539.177 103.661 538.39 104.94 538.193 106.219C537.898 107.498 538.291 108.482 539.177 109.368C540.062 110.155 541.145 110.45 542.325 110.155C543.604 109.86 544.883 108.974 546.261 107.498C547.54 106.121 548.327 104.842 548.523 103.563C548.72 102.382 548.425 101.3 547.54 100.414C546.654 99.6274 545.67 99.3322 544.391 99.6274Z" fill="black"/>
<path d="M554.23 107.399L553.344 106.12L554.033 105.432L555.804 107.203C556.099 107.498 556.493 107.891 556.985 108.285C557.476 108.678 557.772 108.974 557.968 109.17C559.149 110.449 559.838 111.433 559.936 112.417C560.035 113.401 559.739 114.09 559.051 114.877C558.46 115.467 557.673 115.861 556.886 115.959C556.099 116.057 555.312 115.861 554.525 115.27C555.41 116.156 555.804 116.943 555.902 117.927C556.001 118.812 555.607 119.599 554.918 120.288C554.033 121.173 552.951 121.567 551.77 121.469C550.589 121.37 549.31 120.583 547.835 119.107C547.539 118.812 547.244 118.419 546.949 118.123C546.26 117.435 545.867 116.943 545.768 116.844L543.998 115.073L544.686 114.483L545.867 115.467L554.23 107.399ZM548.425 118.419C549.31 119.304 550.097 119.796 550.885 119.796C551.672 119.796 552.36 119.501 553.049 118.812C553.738 118.123 554.033 117.435 554.033 116.844C554.033 116.254 553.639 115.467 552.852 114.68C551.967 113.794 551.377 113.204 551.18 113.007L547.146 116.844C547.343 117.238 547.736 117.73 548.425 118.419ZM552.754 113.007L553.443 113.794C554.033 114.385 554.722 114.68 555.312 114.68C556.001 114.68 556.591 114.385 557.28 113.696C557.87 113.106 558.165 112.515 558.165 111.925C558.165 111.335 557.772 110.646 556.985 109.859C556.689 109.564 556.296 109.269 556.001 108.875L555.706 108.58L551.967 112.22C552.164 112.417 552.36 112.614 552.754 113.007Z" fill="black"/>
<path d="M574.891 128.258L574.202 128.848L573.022 127.766L564.265 135.341L565.249 136.817L564.56 137.407L561.117 133.374L561.806 132.783L562.986 133.866L571.841 126.29L567.905 121.764L559.051 129.438L560.035 130.914L559.346 131.504L555.902 127.569L556.591 126.979L557.673 127.962L566.43 120.387L565.544 119.009L566.233 118.419L574.891 128.258Z" fill="black"/>
<path d="M567.414 140.162C567.315 139.08 567.61 138.096 568.102 137.112C568.693 136.128 569.48 135.144 570.562 134.259C571.644 133.373 572.825 132.783 574.006 132.586C575.186 132.39 576.268 132.39 577.351 132.783C578.433 133.177 579.318 133.865 580.007 134.751C581.188 136.325 581.68 137.801 581.286 139.375C580.991 140.949 579.909 142.425 578.236 143.704C577.055 144.589 575.875 145.18 574.694 145.376C573.514 145.573 572.333 145.573 571.251 145.18C570.168 144.786 569.283 144.097 568.496 143.212C567.906 142.228 567.414 141.146 567.414 140.162ZM576.268 133.964C574.989 134.062 573.612 134.751 571.939 136.03C570.464 137.21 569.48 138.391 569.086 139.572C568.693 140.752 568.791 141.835 569.578 142.818C570.365 143.802 571.349 144.196 572.628 144.097C573.907 143.999 575.383 143.31 576.957 142.031C578.433 140.851 579.417 139.67 579.81 138.489C580.204 137.309 580.007 136.227 579.318 135.243C578.531 134.259 577.547 133.865 576.268 133.964Z" fill="black"/>
<path d="M580.204 149.607C578.629 150.394 577.35 150.886 576.367 150.984C575.875 150.984 575.383 150.984 575.088 150.788C574.694 150.591 574.399 150.394 574.104 150.001C573.71 149.509 573.513 149.115 573.415 148.82L574.596 147.836C574.694 148.131 574.989 148.525 575.383 149.017C575.481 149.213 575.678 149.312 575.875 149.41C576.071 149.509 576.268 149.509 576.563 149.509C578.334 149.41 581.089 148.033 584.729 145.376L585.91 144.491L584.828 142.622L585.615 142.031L591.912 150.788L591.125 151.378L589.944 150.099L580.499 156.888L581.384 158.462L580.597 158.954L577.252 154.231L578.039 153.739L579.318 155.215L588.763 148.426L586.599 145.376L585.221 146.36C583.45 147.836 581.778 148.82 580.204 149.607Z" fill="black"/>
<path d="M592.994 154.527L592.305 153.149L593.092 152.657L598.307 160.627L596.044 162.397L595.454 161.512L596.634 160.036L594.175 156.101L589.747 158.954L591.518 161.512L592.994 160.922L593.584 161.807L589.944 164.168L589.354 163.283L590.534 162.201L588.862 159.544L584.238 162.594L587.288 166.923L589.846 166.431L590.141 167.514L587.091 168.793L581.384 160.135L582.171 159.643L583.155 160.823L592.994 154.527Z" fill="black"/>
<path d="M601.455 167.612L599.684 164.955L595.945 166.431L595.355 165.349L599.782 163.086L605.784 173.121L601.553 175.876L600.963 174.892L604.013 172.334L602.439 169.481L592.305 175.483L593.486 177.844L592.699 178.336L589.058 172.236L589.845 171.744L591.223 173.712L601.455 167.612Z" fill="black"/>
<path d="M602.734 183.748L602.341 182.961C602.045 182.764 601.554 182.764 600.865 182.764C600.176 182.764 599.389 182.862 598.405 182.961C597.421 183.059 596.733 183.059 596.241 183.059C595.749 183.059 595.454 182.961 595.355 182.764L594.175 180.501L594.962 180.107L595.454 180.698C595.552 180.796 595.847 180.895 596.241 180.993C596.634 180.993 597.225 180.993 598.012 181.091C598.897 181.091 599.684 181.091 600.373 181.091C600.963 181.19 601.455 181.288 601.849 181.485C601.652 180.599 601.75 179.812 602.045 179.124C602.439 178.336 603.029 177.746 603.816 177.353C605.095 176.664 606.276 176.566 607.162 177.057C608.047 177.549 608.932 178.533 609.72 180.009C609.916 180.304 610.113 180.796 610.31 181.288C610.507 181.878 610.703 182.272 610.9 182.567L612.179 184.928L611.392 185.42L610.408 184.141L600.176 189.651L600.865 191.225L600.078 191.52L597.421 186.699L598.208 186.306L599.192 187.782L603.521 185.42L602.734 183.748ZM609.424 181.682C609.228 181.19 609.031 180.698 608.834 180.304C608.342 179.419 607.85 178.927 607.26 178.632C606.67 178.336 605.883 178.533 604.997 179.025C604.112 179.517 603.521 180.107 603.324 180.796C603.128 181.485 603.226 182.272 603.718 183.157C604.21 184.043 604.505 184.633 604.702 184.83L609.72 182.075L609.424 181.682Z" fill="black"/>
<path d="M614.245 191.225L612.77 188.372L608.932 189.552L608.441 188.47L613.065 186.601L618.181 197.03L613.753 199.391L613.261 198.309L616.508 196.046L615.229 193.094L604.603 198.21L605.587 200.67L604.8 201.063L601.652 194.668L602.439 194.275L603.718 196.341L614.245 191.225Z" fill="black"/>
<path d="M609.719 210.508C609.916 209.426 610.408 208.344 611.195 207.557C611.982 206.671 613.065 205.983 614.344 205.392C615.623 204.9 616.902 204.605 618.082 204.802C619.263 204.9 620.345 205.392 621.329 206.081C622.313 206.77 623.002 207.753 623.494 208.934C623.887 209.82 624.182 210.902 624.379 212.279L624.477 212.87L621.329 213.952L620.837 212.771L622.805 211.394C622.903 211.197 622.903 210.803 622.805 210.41C622.706 210.016 622.608 209.426 622.313 208.934C622.018 208.245 621.526 207.655 620.837 207.262C620.148 206.868 619.361 206.671 618.377 206.671C617.394 206.671 616.41 206.966 615.229 207.36C614.147 207.852 613.261 208.344 612.474 209.032C611.687 209.721 611.195 210.41 610.9 211.197C610.605 211.984 610.703 212.87 610.998 213.657C611.294 214.247 611.49 214.739 611.786 215.034C611.982 215.329 612.278 215.526 612.573 215.723H614.54L614.836 216.903L612.179 217.494C612.081 217.297 611.884 216.903 611.49 216.51C611.195 216.116 610.9 215.821 610.703 215.428C610.507 215.034 610.211 214.64 610.015 214.05C609.719 212.87 609.523 211.689 609.719 210.508Z" fill="black"/>
<path d="M627.626 219.757L626.74 220.052L625.855 218.38L617 221.626L619.657 222.315L627.724 225.07L628.216 224.873L627.823 223.2L628.708 222.905L630.479 227.726L629.594 228.021L628.905 226.742L617.984 230.776L618.378 232.35L617.492 232.646L615.721 227.726L616.607 227.431L617.394 228.907L626.347 225.66L623.789 225.07L615.623 222.217L615.033 222.413L615.426 224.086L614.541 224.381L612.77 219.462L613.655 219.167L614.344 220.544L625.265 216.51L624.969 215.034L625.855 214.739L627.626 219.757Z" fill="black"/>
<path d="M634.119 239.04L629.495 240.614L629.102 239.433L632.545 237.761L631.463 233.825L620.247 237.367L621.034 240.516L620.148 240.811L617.885 233.825L618.771 233.53L619.558 235.399L630.577 231.858L630.184 229.89L631.069 229.595L634.119 239.04Z" fill="black"/>
<path d="M633.923 242.484L633.726 241.008L634.611 240.812L635.89 245.731L635.005 245.928L634.414 244.452L629.594 245.731L631.266 252.126L636.087 250.847L635.89 249.371L636.776 249.174L638.055 253.995L637.169 254.192L636.579 252.815L625.363 255.865L625.56 257.34L624.674 257.537L623.395 252.716L624.281 252.519L624.871 253.995L630.085 252.618L628.413 246.223L623.198 247.6L623.395 249.174L622.51 249.371L621.132 244.452L622.018 244.255L622.608 245.632L633.923 242.484Z" fill="black"/>
<path d="M639.826 260.488L640.318 262.456L628.708 269.638L628.807 270.818L627.921 271.015L626.839 266.194L627.724 265.998L628.216 267.473L630.774 265.998L629.594 260.685L626.74 260.39L626.937 261.964L626.052 262.161L625.068 257.832L625.953 257.635L626.347 258.717L639.826 260.488ZM637.169 262.357L638.645 261.57L636.874 261.472L630.577 260.881L631.561 265.506L637.169 262.357Z" fill="black"/>
<path d="M633.726 274.951C631.955 274.951 630.676 274.852 629.692 274.459C629.2 274.262 628.806 274.065 628.61 273.77C628.314 273.475 628.216 273.081 628.118 272.688C628.019 272.098 627.921 271.704 628.019 271.409L629.495 271.015C629.495 271.311 629.593 271.802 629.692 272.393C629.692 272.59 629.79 272.786 629.987 272.983C630.085 273.18 630.282 273.278 630.577 273.377C632.151 274.065 635.3 273.967 639.727 273.18L641.203 272.885L641.006 270.72L641.892 270.523L643.761 281.149L642.876 281.346L642.384 279.673L630.971 281.641L631.069 283.51L630.184 283.707L629.2 278.001L630.085 277.804L630.577 279.673L641.99 277.706L641.301 273.967L639.629 274.262C637.366 274.656 635.398 274.852 633.726 274.951Z" fill="black"/>
<path d="M639.432 289.905C639.629 291.381 639.432 292.66 638.743 293.546C638.153 294.431 637.169 294.923 635.89 295.12C634.513 295.317 633.332 294.923 632.447 294.136C631.561 293.349 631.069 292.168 630.873 290.692C630.873 290.496 630.873 290.299 630.774 290.102C630.676 289.905 630.774 289.709 630.774 289.413C630.774 288.725 630.676 288.036 630.676 287.446L630.381 284.888L631.266 284.789L631.66 286.363L643.269 284.986L643.368 283.412L644.253 283.313L644.843 288.626L643.958 288.725L643.368 286.954L639.039 287.446L639.432 289.905ZM631.758 289.217C631.758 289.413 631.758 289.807 631.856 290.201C631.955 291.283 632.348 291.971 633.037 292.463C633.726 292.955 634.513 293.152 635.595 292.955C636.579 292.857 637.366 292.463 637.76 291.873C638.252 291.283 638.35 290.496 638.252 289.413L638.055 287.544L631.758 288.331C631.758 288.725 631.758 289.02 631.758 289.217ZM646.221 300.925L645.335 301.023L644.942 299.35L633.431 300.728V302.499L632.545 302.597L631.856 297.186L632.742 297.088L633.135 298.76L644.647 297.383V295.612L645.532 295.513L646.221 300.925Z" fill="black"/>
<path d="M645.631 309.583L645.827 308.107H646.713L646.91 313.224H646.024L645.729 311.649L640.711 311.846L641.006 318.438L646.024 318.241L646.221 316.765H647.106L647.303 321.783H646.418L646.122 320.307L634.513 320.898L634.415 322.373H633.529L633.332 317.356H634.218L634.513 318.831L639.924 318.536L639.629 311.944L634.218 312.24L634.119 313.912H633.234L633.037 308.796H633.923L634.218 310.272L645.631 309.583Z" fill="black"/>
<path d="M647.5 328.277V330.343L634.71 335.065L634.513 336.246H633.627L633.529 331.327H634.414L634.611 332.901L637.366 332.015L637.268 326.604L634.513 325.817L634.316 327.391H633.431L633.332 322.964H634.218L634.414 324.144L647.5 328.277ZM644.548 329.457L646.221 328.965L644.548 328.572L638.547 326.801L638.645 331.523L644.548 329.457Z" fill="black"/>
<path d="M646.024 344.117L646.418 342.051L647.303 342.149L647.008 347.069L638.448 349.135L636.087 349.627L638.448 350.315L646.713 353.464L646.418 358.383L645.532 358.285L645.434 356.219L633.726 357.006L633.431 358.58L632.545 358.481L632.84 353.07L633.726 353.169L633.824 354.841L642.285 354.546L645.926 354.349L643.269 353.365L633.726 349.627L633.824 348.446L642.974 345.986L646.614 345.101L642.974 344.511L634.611 343.232L634.316 345.101L633.431 345.003L633.726 340.182L634.611 340.28L634.71 341.854L646.024 344.117Z" fill="black"/>
<path d="M645.63 365.565L645.434 367.631L632.152 370.681L631.856 371.763L630.971 371.665L631.561 366.745L632.447 366.844V368.418L635.3 367.828L635.89 362.416L633.234 361.236L632.84 362.81L631.955 362.712L632.447 358.284L633.332 358.383L633.431 359.563L645.63 365.565ZM642.482 366.352L644.155 366.057L642.58 365.466L636.874 362.908L636.382 367.631L642.482 366.352Z" fill="black"/>
<path d="M643.072 375.6L643.564 374.222L644.45 374.321L644.056 376.78C643.958 377.272 643.958 377.666 643.86 378.059C643.761 378.748 643.761 379.338 643.663 379.929C643.368 381.7 642.876 382.88 642.089 383.569C641.301 384.159 640.318 384.454 638.94 384.258C637.956 384.061 637.169 383.766 636.481 383.175C635.792 382.585 635.398 381.896 635.103 381.011C634.808 380.126 634.808 379.142 635.005 378.158C635.103 377.764 635.103 377.469 635.202 377.076C635.3 376.682 635.3 376.485 635.398 376.387L631.364 375.797L630.774 378.256L629.889 378.158L630.873 372.156L631.758 372.255L631.66 373.829L643.072 375.6ZM635.989 378.355C635.792 379.338 635.989 380.126 636.481 380.913C636.972 381.7 637.858 382.093 639.235 382.29C640.318 382.487 641.105 382.29 641.597 381.896C642.187 381.405 642.482 380.617 642.679 379.535C642.777 379.142 642.777 378.748 642.777 378.256C642.777 377.961 642.777 377.764 642.777 377.666L636.185 376.682C636.185 376.977 636.087 377.567 635.989 378.355Z" fill="black"/>
<path d="M629.003 386.717C629.79 385.93 630.774 385.34 631.856 385.045C633.037 384.749 634.316 384.749 635.693 385.045C637.071 385.34 638.251 385.832 639.137 386.619C640.121 387.406 640.711 388.39 641.105 389.472C641.498 390.554 641.597 391.735 641.301 393.014C641.105 393.998 640.711 395.08 640.219 396.359L640.022 396.949L636.776 396.162L636.972 394.982H639.432C639.629 394.883 639.826 394.588 640.022 394.195C640.219 393.801 640.318 393.309 640.514 392.719C640.711 391.932 640.613 391.243 640.219 390.456C639.924 389.767 639.334 389.177 638.547 388.586C637.759 388.095 636.776 387.701 635.497 387.406C634.316 387.209 633.234 387.111 632.25 387.209C631.266 387.307 630.381 387.603 629.692 388.193C629.003 388.685 628.61 389.374 628.413 390.357C628.314 391.046 628.216 391.538 628.314 391.932C628.314 392.325 628.413 392.62 628.61 392.915L630.282 393.998L629.889 395.08L627.331 394.096C627.331 393.801 627.331 393.407 627.331 392.915C627.331 392.424 627.232 392.03 627.232 391.538C627.232 391.145 627.331 390.554 627.429 389.964C627.724 388.685 628.216 387.603 629.003 386.717Z" fill="black"/>
<path d="M636.48 413.183L635.595 412.888L635.89 411.019L626.839 408.559L628.61 410.625L633.529 417.61L634.021 417.709L634.71 416.135L635.595 416.43L634.218 421.349L633.332 421.054L633.529 419.578L622.313 416.528L621.723 418.004L620.837 417.807L622.214 412.79L623.1 412.986L622.805 414.659L631.955 417.217L630.184 415.348L625.264 408.264L624.576 408.067L623.887 409.74L623.002 409.543L624.379 404.427L625.264 404.624L625.068 406.198L636.284 409.248L636.874 407.87L637.759 408.165L636.48 413.183Z" fill="black"/>
<path d="M632.742 425.187C632.643 425.777 632.643 426.269 632.545 426.662C632.447 427.056 632.348 427.45 632.25 427.745C631.758 429.22 631.168 430.303 630.381 430.893C629.593 431.483 628.708 431.68 627.724 431.385C626.74 431.09 626.15 430.499 625.756 429.712C625.363 428.925 625.264 428.138 625.363 427.154C624.969 428.237 624.379 429.024 623.592 429.417C622.805 429.811 622.018 429.909 621.132 429.614C619.853 429.22 618.968 428.532 618.574 427.449C618.181 426.466 618.181 425.088 618.771 423.317C618.968 422.629 619.263 422.038 619.558 421.448C619.853 420.956 620.148 420.562 620.345 420.267C620.542 419.972 620.64 419.775 620.739 419.775L623.69 421.054L623.395 421.94L620.935 421.645C620.444 422.137 620.05 422.825 619.656 423.908C619.361 424.695 619.46 425.383 619.755 425.974C620.05 426.564 620.739 426.958 621.723 427.253C622.411 427.45 623.1 427.45 623.789 427.154C624.477 426.859 624.969 426.17 625.264 425.187L625.658 423.908L626.642 424.203L626.347 425.187C626.15 425.679 626.15 426.17 626.15 426.662C626.248 427.154 626.445 427.646 626.74 428.04C627.035 428.433 627.527 428.729 628.118 428.925C628.905 429.22 629.593 429.122 630.085 428.827C630.577 428.532 630.971 427.941 631.266 427.154C631.463 426.662 631.561 426.17 631.463 425.777C631.463 425.383 631.364 425.088 631.168 424.891L629.593 424.006L629.987 422.924L632.742 423.612C632.84 424.203 632.742 424.596 632.742 425.187Z" fill="black"/>
<path d="M626.642 440.24L627.429 438.862L628.315 439.158L627.429 441.519C627.232 441.912 627.134 442.404 626.937 443.093C626.74 443.683 626.642 444.077 626.544 444.372C625.953 445.946 625.265 447.028 624.478 447.52C623.691 448.012 622.805 448.111 621.92 447.717C621.132 447.422 620.444 446.93 620.05 446.143C619.657 445.454 619.558 444.667 619.657 443.782C619.263 444.864 618.673 445.651 617.886 446.143C617.099 446.537 616.213 446.635 615.328 446.241C614.147 445.749 613.36 444.962 612.966 443.88C612.573 442.798 612.671 441.224 613.458 439.354C613.655 438.961 613.754 438.567 613.95 438.174C614.344 437.288 614.541 436.698 614.639 436.6L615.524 434.238L616.41 434.533L616.016 436.009L626.642 440.24ZM614.147 439.65C613.655 440.83 613.655 441.814 613.852 442.503C614.049 443.191 614.737 443.782 615.623 444.077C616.508 444.47 617.295 444.47 617.886 444.175C618.476 443.88 618.968 443.191 619.362 442.208C619.853 441.027 620.05 440.24 620.149 439.945L614.934 437.977C614.836 438.075 614.541 438.666 614.147 439.65ZM620.837 441.224L620.444 442.208C620.149 442.995 620.149 443.683 620.444 444.274C620.739 444.864 621.329 445.356 622.116 445.651C622.903 445.946 623.592 445.946 624.182 445.749C624.674 445.454 625.166 444.864 625.56 443.782C625.757 443.388 625.855 442.896 625.953 442.503L626.052 442.109L621.231 440.24C621.231 440.437 621.034 440.732 620.837 441.224Z" fill="black"/>
<path d="M621.723 455.784L620.936 457.654L607.26 456.67L606.67 457.654L605.784 457.26L607.752 452.734L608.637 453.128L608.145 454.604L610.999 454.899L613.163 449.881L610.999 448.012L610.211 449.389L609.326 448.996L611.097 444.962L611.982 445.355L611.687 446.536L621.723 455.784ZM618.476 455.588L620.148 455.784L618.771 454.702L614.049 450.57L612.179 454.899L618.476 455.588Z" fill="black"/>
<path d="M604.997 460.409C605.981 459.819 607.063 459.523 608.244 459.523C609.424 459.523 610.703 459.917 611.982 460.507C613.261 461.098 614.245 461.885 614.934 462.869C615.623 463.852 616.016 464.935 616.115 466.115C616.213 467.296 615.918 468.477 615.426 469.559C615.032 470.444 614.344 471.428 613.557 472.51L613.163 473.002L610.211 471.33L610.802 470.247L613.163 470.838C613.36 470.739 613.655 470.543 613.95 470.149C614.245 469.854 614.54 469.362 614.737 468.772C615.131 468.083 615.229 467.296 615.032 466.509C614.934 465.722 614.54 465.033 613.852 464.344C613.163 463.656 612.376 462.967 611.195 462.475C610.113 461.983 609.129 461.59 608.145 461.491C607.162 461.393 606.276 461.491 605.489 461.786C604.702 462.081 604.112 462.672 603.718 463.557C603.423 464.148 603.226 464.639 603.226 465.033C603.128 465.427 603.226 465.722 603.226 466.017L604.505 467.493L603.816 468.477L601.652 466.902C601.75 466.706 601.849 466.312 601.947 465.722C602.045 465.23 602.144 464.836 602.242 464.443C602.341 464.049 602.537 463.557 602.833 462.967C603.226 461.983 604.013 460.999 604.997 460.409Z" fill="black"/>
<path d="M606.375 480.676C606.965 481.66 607.26 482.644 607.26 483.628C607.26 484.612 607.063 485.595 606.473 486.481C605.883 487.563 605.095 488.35 604.21 488.842C603.325 489.334 602.242 489.531 601.16 489.433C600.078 489.334 598.897 488.941 597.716 488.35C596.437 487.662 595.355 486.776 594.667 485.694C593.978 484.71 593.486 483.628 593.486 482.545C593.388 481.463 593.683 480.381 594.175 479.397C594.765 478.315 595.552 477.528 596.437 476.937C597.323 476.446 598.405 476.249 599.487 476.347C600.57 476.446 601.75 476.839 602.931 477.429L604.407 474.773L599.586 472.117L598.602 473.396L597.815 472.904L600.275 468.378L601.062 468.771L600.471 470.247L610.605 475.855L611.491 474.675L612.278 475.167L609.818 479.594L609.031 479.102L609.621 477.626L605.194 475.167L603.718 477.823C604.997 478.807 605.784 479.692 606.375 480.676ZM605.686 482.644C605.095 481.562 603.915 480.479 602.144 479.496C600.57 478.61 599.094 478.217 597.815 478.315C596.536 478.413 595.552 479.004 594.962 480.086C594.371 481.168 594.371 482.152 594.962 483.234C595.552 484.316 596.733 485.399 598.602 486.383C600.176 487.268 601.554 487.662 602.833 487.662C604.112 487.662 604.997 487.071 605.587 485.989C606.178 484.907 606.178 483.825 605.686 482.644Z" fill="black"/>
<path d="M591.518 495.828C590.731 495.926 589.649 495.926 588.37 495.926C587.484 495.926 586.796 495.926 586.304 495.926C585.91 495.926 585.615 496.024 585.418 496.221L584.828 496.713L584.041 496.221L585.221 494.253C585.418 494.057 585.713 493.86 586.402 493.86C586.992 493.86 587.878 493.86 589.058 493.86C590.337 493.958 591.321 493.958 592.108 493.86C592.797 493.86 593.289 493.663 593.486 493.27L594.076 492.286L589.55 489.433L588.468 490.712L587.681 490.22L590.436 485.891L591.223 486.383L590.534 487.76L600.373 493.958L601.357 492.778L602.144 493.27L599.487 497.5L598.7 497.008L599.291 495.532L594.765 492.679L593.879 494.057L596.437 500.157L597.421 498.976L598.208 499.468L595.749 503.403L594.962 502.911L595.552 501.534L593.092 495.237C592.994 495.532 592.305 495.729 591.518 495.828Z" fill="black"/>
<path d="M582.86 499.369C583.844 498.976 584.926 498.877 586.009 499.173C587.189 499.369 588.271 499.96 589.452 500.747C590.633 501.534 591.518 502.518 592.109 503.6C592.699 504.682 592.994 505.764 592.896 506.847C592.797 507.929 592.502 509.011 591.813 509.995C590.731 511.569 589.354 512.455 587.78 512.651C586.205 512.848 584.533 512.258 582.663 511.077C581.483 510.29 580.597 509.306 580.007 508.224C579.417 507.142 579.122 506.06 579.22 504.879C579.22 503.698 579.614 502.714 580.302 501.731C580.991 500.452 581.876 499.763 582.86 499.369ZM591.42 505.961C590.928 504.781 589.846 503.6 588.173 502.518C586.599 501.435 585.221 500.944 583.942 500.845C582.663 500.747 581.68 501.239 580.991 502.223C580.302 503.206 580.204 504.289 580.696 505.469C581.188 506.65 582.27 507.831 583.942 509.011C585.517 510.093 586.894 510.585 588.173 510.684C589.452 510.684 590.436 510.192 591.125 509.208C591.813 508.224 591.912 507.142 591.42 505.961Z" fill="black"/>
<path d="M585.32 516.784L586.402 515.701L587.189 516.292L585.713 518.259C585.418 518.555 585.123 519.047 584.828 519.637C584.533 520.129 584.238 520.522 584.041 520.719C582.958 522.097 582.073 522.884 581.188 523.179C580.302 523.474 579.417 523.277 578.63 522.687C577.941 522.195 577.449 521.506 577.252 520.719C577.055 519.932 577.154 519.145 577.547 518.358C576.859 519.342 576.071 519.932 575.186 520.129C574.301 520.326 573.415 520.129 572.628 519.539C571.644 518.751 571.054 517.768 570.955 516.587C570.857 515.406 571.447 513.93 572.628 512.356C572.923 511.963 573.218 511.668 573.415 511.372C574.005 510.585 574.399 510.192 574.497 509.995L575.973 508.027L576.662 508.618L575.875 509.995L585.32 516.784ZM573.513 512.848C572.726 513.832 572.431 514.718 572.53 515.505C572.628 516.292 573.021 516.98 573.809 517.571C574.596 518.161 575.284 518.358 575.973 518.259C576.662 518.161 577.252 517.669 577.941 516.784C578.728 515.8 579.22 515.111 579.318 514.816L574.891 511.471C574.497 511.471 574.104 511.963 573.513 512.848ZM579.515 516.193L578.925 516.98C578.433 517.669 578.236 518.358 578.334 519.047C578.433 519.735 578.826 520.326 579.613 520.818C580.302 521.309 580.991 521.506 581.581 521.408C582.171 521.309 582.762 520.818 583.45 519.932C583.746 519.538 583.942 519.145 584.238 518.751L584.434 518.456L580.302 515.308C580.007 515.505 579.81 515.8 579.515 516.193Z" fill="black"/>
<g style="mix-blend-mode:overlay">
<circle cx="63.6646" cy="172.068" r="2" transform="rotate(-15 63.6646 172.068)" fill="black"/>
</g>
<g style="mix-blend-mode:overlay">
<circle cx="447.747" cy="42.6193" r="2" transform="rotate(-15 447.747 42.6193)" fill="black"/>
</g>
</g>
</svg>
